<svg id="Layer_1" data-name="Layer 1" xmlns="http://www.w3.org/2000/svg" viewBox="0 0 116.39 178.02"><defs><style>.cls-1{fill:#fff;}.cls-1,.cls-2{stroke:#fff;stroke-miterlimit:10;stroke-width:1.51px;}.cls-2{fill:none;}</style></defs><title>beerEmpty</title><path class="cls-1" d="M87.86,76.15a1.64,1.64,0,0,0,.08-.47s0-.05,0-.08c3.58-30.17.23-43.26,0-44.11,0,0,0,0,0,0,0-4-15.25-7.27-34.06-7.27s-34.06,3.25-34.06,7.27c0,0-3.73,13,0,44.23a1.62,1.62,0,0,0,0,.39c3.76,31,13.51,45.14,12.85,85.32,0,2.49,9.47,4.51,21.16,4.51S75,163.89,75,161.4a1,1,0,0,0,0-.17C74.39,121.22,84.1,107.06,87.86,76.15Z"/><path class="cls-1" d="M33.34,161.31c0,1.74,6,4.6,20.4,4.6,13.26,0,21-2.94,21-4.68s-9.37-3.59-21-3.59S33.34,159.58,33.34,161.31Z"/><path class="cls-2" d="M87.07,30.8c0-3.14-14.72-6.61-33.19-6.61S20.16,27.65,20.16,30.8s15,5.69,33.46,5.69S87.07,33.94,87.07,30.8Z"/></svg>