<svg id="Layer_1" data-name="Layer 1" xmlns="http://www.w3.org/2000/svg" viewBox="0 0 116.39 178.02"><defs><style>.cls-1,.cls-3{fill:#fff;}.cls-1,.cls-4{stroke:#fff;stroke-miterlimit:10;stroke-width:1.51px;}.cls-2{fill:#efefef;}.cls-4{fill:none;}.cls-5{fill:#fd0;opacity:0.5;}</style></defs><title>beerEmpty</title><path class="cls-1" d="M87.86,76.15a1.64,1.64,0,0,0,.08-.47s0-.05,0-.08c3.58-30.17.23-43.26,0-44.11,0,0,0,0,0,0,0-4-15.25-7.27-34.06-7.27s-34.06,3.25-34.06,7.27c0,0-3.73,13,0,44.23a1.62,1.62,0,0,0,0,.39c3.76,31,13.51,45.14,12.85,85.32,0,2.49,9.47,4.51,21.16,4.51S75,163.89,75,161.4a1,1,0,0,0,0-.17C74.39,121.22,84.1,107.06,87.86,76.15Z"/><path class="cls-2" d="M71,41.78A8.05,8.05,0,0,0,60.7,30.1,8,8,0,0,0,54,25.26a8.06,8.06,0,0,0-14.64-5.9l-.12.2a8,8,0,0,0-10.79,7.75,8,8,0,0,0-5,6.34,8.06,8.06,0,1,0,12.11,8.06,8,8,0,0,0,2-1.66A8,8,0,0,0,48.7,39.9l.13.1a8,8,0,0,0,2.88,1.19A8.06,8.06,0,0,0,67.4,44.74,8,8,0,0,0,71,41.78Z"/><path class="cls-3" d="M62.68,46.33a5.62,5.62,0,0,0-7.18-8.15,5.62,5.62,0,0,0-4.65-3.38,5.62,5.62,0,0,0-10.22-4.12l-.09.14A5.62,5.62,0,0,0,33,36.23a5.59,5.59,0,0,0-3.51,4.42A5.63,5.63,0,1,0,38,46.28a5.58,5.58,0,0,0,1.38-1.16A5.59,5.59,0,0,0,47.13,45l.09.07a5.6,5.6,0,0,0,2,.83,5.62,5.62,0,0,0,11,2.48A5.6,5.6,0,0,0,62.68,46.33Z"/><path class="cls-2" d="M87,40.84A8.05,8.05,0,0,0,76.76,29.16a8,8,0,0,0-6.66-4.84,8.06,8.06,0,0,0-14.64-5.9l-.12.2a8,8,0,0,0-10.79,7.75,8,8,0,0,0-5,6.34,8.06,8.06,0,1,0,12.11,8.06,8,8,0,0,0,2-1.66A8,8,0,0,0,64.76,39l.13.1a8,8,0,0,0,2.88,1.19A8.06,8.06,0,0,0,83.46,43.8,8,8,0,0,0,87,40.84Z"/><path class="cls-3" d="M78.74,45.39a5.62,5.62,0,0,0-7.18-8.15,5.62,5.62,0,0,0-4.65-3.38,5.62,5.62,0,0,0-10.22-4.12l-.09.14a5.62,5.62,0,0,0-7.53,5.41,5.59,5.59,0,0,0-3.51,4.42A5.63,5.63,0,1,0,54,45.34a5.58,5.58,0,0,0,1.38-1.16,5.59,5.59,0,0,0,7.79-.11l.09.07a5.6,5.6,0,0,0,2,.83,5.62,5.62,0,0,0,11,2.48A5.6,5.6,0,0,0,78.74,45.39Z"/><path class="cls-1" d="M33.34,161.31c0,1.74,6,4.6,20.4,4.6,13.26,0,21-2.94,21-4.68s-9.37-3.59-21-3.59S33.34,159.58,33.34,161.31Z"/><path class="cls-4" d="M87.07,30.8c0-3.14-14.72-6.61-33.19-6.61S20.16,27.65,20.16,30.8s15,5.69,33.46,5.69S87.07,33.94,87.07,30.8Z"/><path class="cls-5" d="M82.27,54.18s0,0,0,0c.41-8-9.54,3.1-28.23,2-10.8-.64-11.15-10.9-25.18-4.76-1.48.65-2.54,1.14-2.92,1.72a1.59,1.59,0,0,0-.45,1s-3.11,10.37,0,35.41a1.25,1.25,0,0,0,0,.31c3.13,24.82,11.26,36.14,10.71,68.3,0,1.42,4,2.64,9.77,3.23l.19,0,1,.1q1.44.13,3.1.19h0l1.66.05h1.89c9.74,0,17.64-1.62,17.64-3.61a.78.78,0,0,0,0-.13c-.52-32,7.57-43.36,10.71-68.1a1.27,1.27,0,0,0,.07-.37s0,0,0-.06C85.25,65.34,82.46,54.86,82.27,54.18Z"/><circle class="cls-3" cx="54.72" cy="65.28" r="0.71"/><circle class="cls-3" cx="53.78" cy="61.69" r="1.62"/><circle class="cls-3" cx="56.09" cy="66.13" r="0.25"/><circle class="cls-3" cx="53.76" cy="67.27" r="0.25"/><circle class="cls-3" cx="53.12" cy="65.23" r="0.25"/><circle class="cls-3" cx="29.99" cy="71.37" r="0.71" transform="translate(-30.96 23.64) rotate(-29.14)"/><circle class="cls-3" cx="28.38" cy="71.29" r="0.25" transform="translate(-31.12 22.85) rotate(-29.14)"/><circle class="cls-3" cx="29.86" cy="69.16" r="0.25" transform="translate(-29.9 23.3) rotate(-29.14)"/><circle class="cls-3" cx="31.41" cy="70.63" r="0.25" transform="translate(-30.42 24.24) rotate(-29.14)"/><circle class="cls-3" cx="74.15" cy="60.17" r="0.71" transform="translate(-3.99 115.06) rotate(-74.14)"/><circle class="cls-3" cx="73.07" cy="58.98" r="0.25" transform="matrix(0.27, -0.96, 0.96, 0.27, -3.63, 113.15)"/><circle class="cls-3" cx="75.62" cy="58.52" r="0.25" transform="translate(-1.33 115.27) rotate(-74.14)"/><circle class="cls-3" cx="75.68" cy="60.65" r="0.25" transform="translate(-3.34 116.88) rotate(-74.14)"/><circle class="cls-3" cx="39.53" cy="58.83" r="0.71" transform="translate(-30.02 45.18) rotate(-45)"/><circle class="cls-3" cx="37.96" cy="59.19" r="0.25" transform="translate(-30.74 44.18) rotate(-45)"/><circle class="cls-3" cx="38.8" cy="56.74" r="0.25" transform="translate(-28.76 44.06) rotate(-45)"/><circle class="cls-3" cx="40.69" cy="57.73" r="0.25" transform="translate(-28.9 45.68) rotate(-45)"/><circle class="cls-3" cx="79.51" cy="66.37" r="0.71" transform="translate(9.97 143.11) rotate(-87.67)"/><circle class="cls-3" cx="78.11" cy="67.16" r="0.25" transform="translate(7.83 142.48) rotate(-87.67)"/><circle class="cls-3" cx="80.39" cy="68.39" r="0.25" transform="translate(8.79 145.94) rotate(-87.67)"/><circle class="cls-3" cx="81.11" cy="66.38" r="0.25" transform="translate(11.48 144.73) rotate(-87.67)"/></svg>