<svg xmlns="http://www.w3.org/2000/svg" viewBox="0 0 125.64 218.46"><defs><style>.cls-1{fill:#fff;stroke:#000;stroke-width:0.25px;}.cls-1,.cls-10,.cls-11,.cls-9{stroke-miterlimit:10;}.cls-2{fill:#ffcd94;}.cls-3{fill:#1d1d1d;}.cls-4,.cls-6,.cls-8{fill:#b09065;}.cls-4{opacity:0.3;}.cls-5{fill:#5d4037;}.cls-10,.cls-11,.cls-6,.cls-7,.cls-9{opacity:0.5;}.cls-10,.cls-11,.cls-9{fill:none;stroke:#b09065;stroke-linecap:round;}.cls-9{stroke-width:0.5px;}.cls-11{stroke-width:0.33px;}</style></defs><title>Asset 13</title><g id="Layer_2" data-name="Layer 2"><g id="Layer_2-2" data-name="Layer 2"><polygon class="cls-1" points="92.4 75.1 78.03 68.22 67.13 75.98 58.06 68.22 46.79 73.04 64.62 135.81 92.4 75.1"/><rect class="cls-2" x="58.06" y="57.65" width="19.96" height="17.2"/><polygon class="cls-2" points="85.84 58.65 48.42 60.65 52.42 8.87 84.84 8.87 85.84 58.65"/><path class="cls-3" d="M27.24,131.35,29,149.52l.27,3.06-.3-.09"/><polyline class="cls-3" points="31.54 178.45 35.13 218.46 61.19 205.8 87.26 218.46 99.95 113.86 108.27 79.98 92.4 75.1 64.62 135.81 46.79 73.04 23.47 80.59"/><path class="cls-3" d="M79.93,69.69l-9.16,3.43a3.61,3.61,0,0,0-2.24-.78h-2.3a3.61,3.61,0,0,0-2.39.91l-9.51-3.56a2.06,2.06,0,0,0-2.79,1.93v8.71a2.06,2.06,0,0,0,2.79,1.93l9.51-3.56a3.61,3.61,0,0,0,2.39.91h2.3a3.61,3.61,0,0,0,2.24-.78l9.16,3.43a2.06,2.06,0,0,0,2.79-1.93V71.62A2.06,2.06,0,0,0,79.93,69.69Z"/><polygon class="cls-4" points="52.42 9.68 48.42 60.09 51.48 60.09 55.48 9.68 52.42 9.68"/><path class="cls-5" d="M83.82,4.76c-6.27-2.92-14.18-6.24-21.2-4-9.6,3-10.64,13.7-18,19,.48-.34,10.62,2.11,12.44,1.84,4.65-.69,9.3-3.68,13.64-5.44,13.92-5.65,9.73-1.14,13.12,11.27,0,.06,4.91-7.74,5.21-9.65C89.86,12.31,88.89,7.7,83.82,4.76Z"/><circle class="cls-3" cx="65.85" cy="89.42" r="2.15"/><circle class="cls-3" cx="65.85" cy="101.04" r="2.15"/><circle class="cls-3" cx="65.85" cy="112.66" r="2.15"/><path class="cls-6" d="M75.94,30a4.35,4.35,0,0,0,.43-.3,3,3,0,0,1-5.62-.26A4.33,4.33,0,0,0,75.94,30Z"/><path class="cls-6" d="M60.44,30a4.35,4.35,0,0,0,.43-.3,3,3,0,0,1-5.62-.26A4.33,4.33,0,0,0,60.44,30Z"/><path class="cls-5" d="M62.55,26.52a6.11,6.11,0,0,0-8.39.16l.26-.29A6.14,6.14,0,0,1,63.09,26Z"/><path class="cls-5" d="M69.64,26.52a6.11,6.11,0,0,1,8.39.16l-.26-.29A6.14,6.14,0,0,0,69.1,26Z"/><g class="cls-7"><path class="cls-8" d="M65.16,42.15c-1.34-.53.08-9.65.6-12.73C64.59,32.1,60.83,40.94,62,41.8a4.83,4.83,0,0,0,3.47.45Z"/></g><line class="cls-9" x1="60.07" y1="49.78" x2="69.1" y2="49.78"/><line class="cls-10" x1="62.37" y1="52.24" x2="66.8" y2="52.24"/><ellipse class="cls-2" cx="85.84" cy="29.18" rx="1.48" ry="2.5"/><path class="cls-11" d="M86.22,30.2a1.93,1.93,0,0,0,.44-2.08.72.72,0,0,0-1.21-.23,1.24,1.24,0,0,0-.28,1.33"/><polygon class="cls-6" points="48.51 60.09 48.42 60.65 85.84 58.65 85.82 58.09 48.51 60.09"/><polygon class="cls-6" points="58.02 60 58.02 67.32 77.98 63.51 77.98 59 58.02 60"/><path class="cls-3" d="M92.4,75.1l15.87,4.45s17.4,48.77,17.23,66.2c-.09,9.69,4.65,27.44-33.42,32.92,0,0-1.45-13.49,3-24.81,0,0,9-6.83,8.57-9.23s-5.59-15.34-5.59-15.34"/><path class="cls-3" d="M33.24,78,17.37,82.43S0,131.2.14,148.63c.09,9.69-4.65,27.44,33.42,32.92,0,0,1.45-13.49-3-24.81,0,0-9-6.83-8.57-9.23s5.59-15.34,5.59-15.34"/></g></g></svg>