<?xml version="1.0" encoding="utf-8"?>
<!-- Generator: Adobe Illustrator 21.1.0, SVG Export Plug-In . SVG Version: 6.00 Build 0)  -->
<svg version="1.1" id="Слой_1" xmlns="http://www.w3.org/2000/svg" xmlns:xlink="http://www.w3.org/1999/xlink" x="0px" y="0px"
	 viewBox="0 0 128 128" style="enable-background:new 0 0 128 128;" xml:space="preserve">
<style type="text/css">
	.st0{fill:#2D2D2D;}
</style>
<g>
	<path class="st0" d="M73.8,121H37.2c-1.1,0-2-0.9-2-2V27.3c0-1.1,0.9-2,2-2h36.7c1.1,0,2,0.9,2,2V119C75.8,120.1,74.9,121,73.8,121
		z M39.2,117h32.7V29.3H39.2V117z"/>
</g>
<g>
	<path class="st0" d="M46.3,29.3c-1,0-1.8-0.7-2-1.7L42,11.7L19.5,20c-1,0.4-2.2-0.1-2.6-1.2c-0.4-1,0.1-2.2,1.2-2.6L42.9,7
		c0.6-0.2,1.2-0.2,1.7,0.2c0.5,0.3,0.9,0.8,1,1.4L48.3,27c0.2,1.1-0.6,2.1-1.7,2.3C46.5,29.3,46.4,29.3,46.3,29.3z"/>
</g>
<g>
	<path class="st0" d="M49.4,49.8c-1.1,0.2-2.1-0.6-2.3-1.7L44.5,30c-0.2-1.1,0.6-2.1,1.7-2.3c1.1-0.2,2.1,0.6,2.3,1.7l2.6,18.1
		C51.2,48.7,50.6,49.7,49.4,49.8z"/>
</g>
<path class="st0" d="M40.5,45.3c0,0,7.1-3.3,10.5,0c3.4,3.3,8.6-8.5,11.5-4.9c2.9,3.6,8,2.4,8,2.4v72.7H40.5V45.3z"/>
</svg>
