<svg xmlns="http://www.w3.org/2000/svg" viewBox="0 0 67.85 49.24"><defs><style>.cls-1{fill:#56281b;}.cls-2{fill:gold;}.cls-3{fill:#fff;}</style></defs><title>Asset 11assets</title><g id="Layer_2" data-name="Layer 2"><g id="Layer_5" data-name="Layer 5"><rect class="cls-1" y="45.89" width="67.85" height="3.35"/><polygon class="cls-1" points="3.39 42.54 3.39 45.89 5.38 45.89 5.38 44.33 62.47 44.33 62.47 45.89 64.46 45.89 64.46 42.54 3.39 42.54"/><rect class="cls-2" x="26.08" y="8.7" width="15.07" height="17.39" rx="6.47" ry="6.47"/><rect class="cls-2" x="32.35" y="4.01" width="2.52" height="6.42"/><path class="cls-2" d="M39.13,4H28.5a.94.94,0,0,1-.82-1.39l.65-1.19A2.75,2.75,0,0,1,30.74,0h6.14a2.75,2.75,0,0,1,2.41,1.43l.65,1.19A.94.94,0,0,1,39.13,4Z"/><path class="cls-2" d="M38,2.3H29.18c-.59,0-1,.38-.69.69l.55.6,2,.71h5.12l2-.71.55-.6C39,2.69,38.64,2.3,38,2.3Z"/><path class="cls-2" d="M64.46,35.76C64.46,22.1,50.78,11,33.91,11S3.36,22.1,3.36,35.76c0,.29,0,.58,0,.88h61C64.44,36.34,64.46,36.05,64.46,35.76Z"/><path class="cls-2" d="M67.23,36.63h-2.8a20.08,20.08,0,0,1-.33,2.82h3.13Z"/><path class="cls-2" d="M0,36.63v2.82H3.71a20.1,20.1,0,0,1-.33-2.82Z"/><path class="cls-2" d="M3.39,36.63a20.1,20.1,0,0,0,.33,2.82H64.1a20.08,20.08,0,0,0,.33-2.82Z"/><path class="cls-3" d="M5.38,34.45c0-12,12-21.72,26.83-21.72l1.4,0C19.44,13.35,8.18,22.84,8.18,34.45"/></g></g></svg>