<svg xmlns="http://www.w3.org/2000/svg" viewBox="0 0 67.85 66.03"><defs><style>.cls-1{fill:#56281b;}.cls-2{fill:gold;}.cls-3{fill:#fff;}.cls-4{fill:none;stroke:#1d1d1b;stroke-linecap:round;stroke-miterlimit:10;}</style></defs><title>Asset 12assets</title><g id="Layer_2" data-name="Layer 2"><g id="Layer_5" data-name="Layer 5"><rect class="cls-1" y="62.68" width="67.85" height="3.35"/><polygon class="cls-1" points="3.39 59.33 3.39 62.68 5.38 62.68 5.38 61.11 62.47 61.11 62.47 62.68 64.46 62.68 64.46 59.33 3.39 59.33"/><rect class="cls-2" x="26.08" y="25.48" width="15.07" height="17.39" rx="6.47" ry="6.47"/><rect class="cls-2" x="32.35" y="20.79" width="2.52" height="6.42"/><path class="cls-2" d="M39.13,20.79H28.5a.94.94,0,0,1-.82-1.39l.65-1.19a2.75,2.75,0,0,1,2.41-1.43h6.14a2.75,2.75,0,0,1,2.41,1.43l.65,1.19A.94.94,0,0,1,39.13,20.79Z"/><path class="cls-2" d="M38,19.09H29.18c-.59,0-1,.38-.69.69l.55.6,2,.71h5.12l2-.71.55-.6C39,19.47,38.64,19.09,38,19.09Z"/><path class="cls-2" d="M64.46,52.54c0-13.66-13.68-24.73-30.55-24.73S3.36,38.88,3.36,52.54c0,.29,0,.58,0,.88h61C64.44,53.12,64.46,52.83,64.46,52.54Z"/><path class="cls-2" d="M67.23,53.42h-2.8a20.08,20.08,0,0,1-.33,2.82h3.13Z"/><path class="cls-2" d="M0,53.42v2.82H3.71a20.1,20.1,0,0,1-.33-2.82Z"/><path class="cls-2" d="M3.39,53.42a20.1,20.1,0,0,0,.33,2.82H64.1a20.08,20.08,0,0,0,.33-2.82Z"/><path class="cls-3" d="M5.38,51.23c0-12,12-21.72,26.83-21.72l1.4,0C19.44,30.13,8.18,39.62,8.18,51.23"/><line class="cls-4" x1="33.82" y1="7.3" x2="33.85" y2="0.5"/><line class="cls-4" x1="33.82" y1="7.3" x2="33.85" y2="0.5"/><line class="cls-4" x1="33.82" y1="7.3" x2="33.85" y2="0.5"/><line class="cls-4" x1="16.1" y1="17.63" x2="10.22" y2="14.21"/><line class="cls-4" x1="51.63" y1="17.48" x2="57.53" y2="14.11"/></g></g></svg>