<?xml version="1.0" encoding="utf-8"?>
<!-- Generator: Adobe Illustrator 21.1.0, SVG Export Plug-In . SVG Version: 6.00 Build 0)  -->
<svg version="1.1" id="Layer_1" xmlns="http://www.w3.org/2000/svg" xmlns:xlink="http://www.w3.org/1999/xlink" x="0px" y="0px"
	 viewBox="0 0 598.1 220.5" style="enable-background:new 0 0 598.1 220.5;" xml:space="preserve">
<style type="text/css">
	.st0{fill:#1D1D1D;}
	.st1{fill:#E9EEEF;}
	.st2{font-family:'Poly-Regular';}
	.st3{font-size:72px;}
</style>
<title>Asset 15</title>
<g id="Layer_2">
	<g id="Layer_1-2">
		<path class="st0" d="M200.9,80.5c0.5-1.9,0.8-3.8,0.8-5.7c0-13.7-13.7-24.7-30.6-24.7s-30.6,11.1-30.6,24.7c0,1.9,0.3,3.8,0.8,5.7
			H200.9z"/>
		<ellipse class="st0" cx="170.9" cy="81.8" rx="43.8" ry="2.6"/>
		<ellipse class="st0" cx="171.1" cy="49.3" rx="1.6" ry="2.5"/>
		<polygon class="st0" points="92,62.7 54.5,62.7 58.5,10.9 91,10.9 		"/>
		<path class="st0" d="M88.5,4.6c-6-2.8-13.7-6-20.4-3.9c-9.2,2.9-10.2,13.2-17.3,18.3c0.5-0.3,10.2,2,12,1.8
			c4.5-0.7,9-3.5,13.1-5.2c13.4-5.5,9.3-1.1,12.6,10.9c0,0.1,4.7-7.4,5-9.3C94.3,11.9,93.4,7.4,88.5,4.6z"/>
		<path class="st0" d="M52.9,75l-23.3,7.6c0,0-36.4,75.4-28.5,87.1c0,0,0,5.5,38.1,11c0,0,3.1-14.1-1.4-25.4c0,0-11.8-3.1-11.4-5.5
			s6.9-16.5,6.9-16.5l1.7,18.2l6.2,68.9l26.1-12.7l26.1,12.7l12.7-104.6c0,0,22.3,46.3,25.7,45.6s38.1-56.2,38.1-56.2l-25-6.2
			c0,0-7.6,21.6-9.3,19.9s-16.1-38.8-16.1-38.8l-21-3.1l-27.8,60.7L52.9,75z"/>
		<path class="st1" d="M45.5,156.8c0,0,6.5,20.1,3.5,50.1h34V166C83,166,60.3,156.3,45.5,156.8z"/>
		<path class="st0" d="M180,85.9h-27.8c0,0-3.1,0.7-2.9,11.1l14.5,3.6C163.9,100.6,163.8,91.5,180,85.9z"/>
		<path class="st0" d="M86.1,71.7l-9.2,3.4c-0.6-0.5-1.4-0.8-2.2-0.8h-2.3c-0.9,0-1.7,0.3-2.4,0.9l-9.5-3.6
			c-1.1-0.4-2.3,0.1-2.7,1.2c-0.1,0.2-0.1,0.5-0.1,0.7v8.7c0,1.1,0.9,2.1,2.1,2.1c0.3,0,0.5,0,0.7-0.1l9.6-3.6
			c0.7,0.6,1.5,0.9,2.4,0.9h2.3c0.8,0,1.6-0.3,2.2-0.8l9.2,3.4c1.1,0.4,2.3-0.1,2.7-1.2c0.1-0.2,0.1-0.5,0.1-0.7v-8.7
			c0-1.1-0.9-2.1-2-2.1C86.6,71.5,86.3,71.6,86.1,71.7z"/>
		<circle class="st0" cx="72" cy="91.4" r="2.2"/>
		<circle class="st0" cx="72" cy="103" r="2.2"/>
		<circle class="st0" cx="72" cy="114.7" r="2.2"/>
		<text transform="matrix(1 0 0 1 179.95 168.27)" class="st0 st2 st3">Be My Butler</text>
	</g>
</g>
</svg>
