<?xml version="1.0" encoding="utf-8"?>
<!-- Generator: Adobe Illustrator 21.1.0, SVG Export Plug-In . SVG Version: 6.00 Build 0)  -->
<svg version="1.1" id="Layer_1" xmlns="http://www.w3.org/2000/svg" xmlns:xlink="http://www.w3.org/1999/xlink" x="0px" y="0px"
	 viewBox="0 0 598.1 220.5" style="enable-background:new 0 0 598.1 220.5;" xml:space="preserve">
<style type="text/css">
	.st0{fill:#1D1D1D;}
	.st1{fill:#E9EEEF;}
	.st2{enable-background:new    ;}
</style>
<title>Asset 15</title>
<g id="Layer_2">
	<g id="Layer_1-2">
		<path class="st0" d="M200.9,80.5c0.5-1.9,0.8-3.8,0.8-5.7c0-13.7-13.7-24.7-30.6-24.7s-30.6,11.1-30.6,24.7c0,1.9,0.3,3.8,0.8,5.7
			H200.9z"/>
		<ellipse class="st0" cx="170.9" cy="81.8" rx="43.8" ry="2.6"/>
		<ellipse class="st0" cx="171.1" cy="49.3" rx="1.6" ry="2.5"/>
		<polygon class="st0" points="92,62.7 54.5,62.7 58.5,10.9 91,10.9 		"/>
		<path class="st0" d="M88.5,4.6c-6-2.8-13.7-6-20.4-3.9c-9.2,2.9-10.2,13.2-17.3,18.3c0.5-0.3,10.2,2,12,1.8
			c4.5-0.7,9-3.5,13.1-5.2c13.4-5.5,9.3-1.1,12.6,10.9c0,0.1,4.7-7.4,5-9.3C94.3,11.9,93.4,7.4,88.5,4.6z"/>
		<path class="st0" d="M52.9,75l-23.3,7.6c0,0-36.4,75.4-28.5,87.1c0,0,0,5.5,38.1,11c0,0,3.1-14.1-1.4-25.4c0,0-11.8-3.1-11.4-5.5
			s6.9-16.5,6.9-16.5l1.7,18.2l6.2,68.9l26.1-12.7l26.1,12.7l12.7-104.6c0,0,22.3,46.3,25.7,45.6s38.1-56.2,38.1-56.2l-25-6.2
			c0,0-7.6,21.6-9.3,19.9s-16.1-38.8-16.1-38.8l-21-3.1l-27.8,60.7L52.9,75z"/>
		<path class="st1" d="M45.5,156.8c0,0,6.5,20.1,3.5,50.1h34V166C83,166,60.3,156.3,45.5,156.8z"/>
		<path class="st0" d="M180,85.9h-27.8c0,0-3.1,0.7-2.9,11.1l14.5,3.6C163.9,100.6,163.8,91.5,180,85.9z"/>
		<path class="st0" d="M86.1,71.7l-9.2,3.4c-0.6-0.5-1.4-0.8-2.2-0.8h-2.3c-0.9,0-1.7,0.3-2.4,0.9l-9.5-3.6
			c-1.1-0.4-2.3,0.1-2.7,1.2c-0.1,0.2-0.1,0.5-0.1,0.7v8.7c0,1.1,0.9,2.1,2.1,2.1c0.3,0,0.5,0,0.7-0.1l9.6-3.6
			c0.7,0.6,1.5,0.9,2.4,0.9h2.3c0.8,0,1.6-0.3,2.2-0.8l9.2,3.4c1.1,0.4,2.3-0.1,2.7-1.2c0.1-0.2,0.1-0.5,0.1-0.7v-8.7
			c0-1.1-0.9-2.1-2-2.1C86.6,71.5,86.3,71.6,86.1,71.7z"/>
		<circle class="st0" cx="72" cy="91.4" r="2.2"/>
		<circle class="st0" cx="72" cy="103" r="2.2"/>
		<circle class="st0" cx="72" cy="114.7" r="2.2"/>
		<g class="st2">
			<path class="st0" d="M183.1,165.5c5.3-0.9,5.5-1.7,5.5-4.5v-35.4c0-2.8-0.1-3.5-5.5-4.5l0.4-2.8h19c10.6,0,16.2,4.5,16.2,11.9
				c0,6.6-4.6,10.5-7.6,11.4v0.5c6.1,1.2,10.8,6.3,10.8,12.2c0,6.3-4.5,13.9-17.4,13.9h-21L183.1,165.5z M199.6,140.7
				c8.2,0,11.4-4,11.4-9.6c0-8.4-7.2-8.9-10.7-8.9h-4.8v18.5H199.6z M196.7,163.8c0.2,0.1,1.5,0.7,4.4,0.7c9.6,0,13-3.7,13-9.5
				c0-8.5-6.8-10.5-11.4-10.5h-7v16.8C195.6,162.3,195.6,163.4,196.7,163.8z"/>
			<path class="st0" d="M243.7,133.1c8.9,0,12.5,6.2,12.8,15l-1.9,1.4l-20.9,1.2c0,10.4,5.2,13.3,11.4,13.3c3.3,0,6.6-0.9,9.7-2.4
				l1.5,2.4c-2.6,2.1-8.1,5-14.2,5c-10.2,0-15.3-8.1-15.3-17.2C227,141.4,233.4,133.1,243.7,133.1z M248.9,146.1
				c0.6-0.1,0.7-0.6,0.7-1.4c0-3.4-1.4-7.8-7.3-7.8c-5.9,0-7.7,4.4-8.3,10.4L248.9,146.1z"/>
			<path class="st0" d="M279.2,165.5c5.3-0.9,6-1.7,6-4.5v-35.4c0-2.8-0.1-3.5-5.5-4.5l0.4-2.8h15.1l13.8,37.9
				c0.1,0.4,0.4,1,0.5,1.8h0.7c0.1-0.6,0.2-1.1,0.4-1.4l14-38.2h13l0.3,2.8l-3,0.9c-1.2,0.4-1.4,0.9-1.4,1.7v39
				c0,0.9,0.1,1.6,1.4,1.9l4.5,0.9l-0.3,2.8h-17.8l-0.4-2.8c4.9-0.9,5.6-1.7,5.6-3.9v-32.9c0-1.4,0.1-2,0.2-2.7h-0.6l-15.2,40.9H306
				l-15.3-41H290v35.3c0,2.3,0.7,3.3,3.2,3.7l3.5,0.6l-0.3,2.8h-16.8L279.2,165.5z"/>
			<path class="st0" d="M349,176.9c1.9,0,3.7-0.2,4.8-0.6c1-0.4,2.5-2.2,4.5-8l-12-28.7c-0.7-1.8-0.7-1.9-3.8-2.6l0.4-2.8h14.8
				l0.3,2.8l-4.4,1.1c-0.4,0.1-0.5,0.4-0.5,0.6c0,0.1,0.1,0.5,0.3,0.9l7.3,19.2c0.3,0.8,0.4,1.9,0.4,2.2h0.6l7.6-19.8
				c0.2-0.6,0.4-1.2,0.4-1.7c0-1.3-1.5-1.8-4.8-2.5l0.4-2.8h12.8l0.3,2.8c-3,0.7-3.2,0.8-3.4,1.2l-11.4,28.2
				c-4,9.9-6.6,15.6-17.8,17.6c-1-1-1.9-3.5-1.9-5.9c0-0.4,0.1-0.9,0.1-1.4C345.5,176.8,347.3,176.9,349,176.9z"/>
			<path class="st0" d="M399.1,165.5c5.3-0.9,5.5-1.7,5.5-4.5v-35.4c0-2.8-0.1-3.5-5.5-4.5l0.4-2.8h19c10.6,0,16.2,4.5,16.2,11.9
				c0,6.6-4.6,10.5-7.6,11.4v0.5c6.1,1.2,10.8,6.3,10.8,12.2c0,6.3-4.5,13.9-17.4,13.9h-21L399.1,165.5z M415.6,140.7
				c8.2,0,11.4-4,11.4-9.6c0-8.4-7.2-8.9-10.7-8.9h-4.8v18.5H415.6z M412.7,163.8c0.2,0.1,1.5,0.7,4.4,0.7c9.6,0,13-3.7,13-9.5
				c0-8.5-6.8-10.5-11.4-10.5h-7v16.8C411.6,162.3,411.6,163.4,412.7,163.8z"/>
			<path class="st0" d="M447.1,140.3c0-2.1-1.4-2.7-5.5-3.5l0.4-2.3c6-0.8,9-1,10.7-1l0.8,0.7v22c0,3.7,0.8,7.5,5.7,7.5
				c2.3,0,4.9-0.9,7.6-2.8c1.2-0.8,1.5-1.3,1.5-3.3v-17.3c0-2.1-1.4-2.7-5.5-3.5l0.4-2.3c6-0.8,9-1,10.7-1l0.8,0.7v26.9
				c0,2.2,0.2,3.1,5.5,4.1l-0.4,2.3l-9.3,1c-0.7,0.1-1.6-3.6-1.6-5.3v-0.4l-0.6-0.2l-0.9,1c-2.6,3-6,5.3-11.1,5.3
				c-5.6,0-9.4-2.8-9.4-9.6V140.3z"/>
			<path class="st0" d="M488.2,138.6h-4.7l-0.3-3.1l3.5-0.9c1.8-0.4,1.9-0.6,3.5-9.6l4.4-0.4v9.6h10l-0.6,3.4l-9.4,1.1v17.6
				c0,3.5,0.6,7.5,4.6,7.5c1.8,0,3.7-0.9,5.5-2.2l1.5,2.1c-2,2.7-5.3,5.3-9.5,5.3c-5.3,0-8.6-4-8.6-10.5V138.6z"/>
			<path class="st0" d="M509.7,165.5c5-1.1,5-1.9,5-4.1v-41.8c0-2.1-1.4-2.7-5.5-3.5l0.4-2.3c6-0.8,9-1,10.7-1l0.8,0.7v49.7
				c0,0.9,0.1,1.2,1.4,1.5l3.5,0.9l-0.3,2.8h-15.8L509.7,165.5z"/>
			<path class="st0" d="M548.3,133.1c8.9,0,12.5,6.2,12.8,15l-1.9,1.4l-20.9,1.2c0,10.4,5.2,13.3,11.4,13.3c3.3,0,6.6-0.9,9.7-2.4
				l1.5,2.4c-2.6,2.1-8.1,5-14.2,5c-10.2,0-15.3-8.1-15.3-17.2C531.5,141.4,538,133.1,548.3,133.1z M553.5,146.1
				c0.6-0.1,0.7-0.6,0.7-1.4c0-3.4-1.4-7.8-7.3-7.8c-5.9,0-7.7,4.4-8.3,10.4L553.5,146.1z"/>
			<path class="st0" d="M565.9,165.5c5.5-0.9,5.5-1.9,5.5-4.1v-20.7c0-2.2-0.2-3.2-6-4.1l0.4-2.3l9.8-0.9c0.6,0,1.7,2.2,1.7,4.6
				c0,1.2-0.2,2.9-0.3,3.4l0.6,0.2l0.9-2.1c1.8-4,5.7-6.3,9.5-6.3c1.2,0,2.9,0.2,4.8,1.2c0,2.7-0.3,7.5-1.1,11.8l-3.5,0.4
				c-0.4-4.8-0.9-6.5-1.3-7.1c-0.3-0.4-0.7-0.6-1.4-0.6c-2.5,0-5.3,2.4-6.3,3.7c-1,1.2-1.2,2.1-1.2,4.4v16.3c0,0.9,0.1,1.3,1.4,1.5
				l6.6,0.9l-0.3,2.8h-19.3L565.9,165.5z"/>
		</g>
	</g>
</g>
</svg>
