<svg xmlns="http://www.w3.org/2000/svg" viewBox="0 0 293 260.76"><defs><style>.cls-1{fill:#1d1d1d;}.cls-2,.cls-5{fill:#e32213;}.cls-3{fill:#ffe500;}.cls-13,.cls-14,.cls-15,.cls-4{fill:none;stroke-miterlimit:10;}.cls-4{stroke:#e32213;}.cls-5{font-size:8px;font-family:Leoscar-Sans-Serif, Leoscar;}.cls-6{fill:#e8b646;}.cls-7{fill:#ffcd94;}.cls-10,.cls-12,.cls-8{fill:#b09065;}.cls-8{opacity:0.3;}.cls-9{fill:#5d4037;}.cls-10,.cls-11,.cls-13,.cls-14,.cls-15{opacity:0.5;}.cls-13,.cls-14,.cls-15{stroke:#b09065;stroke-linecap:round;}.cls-13{stroke-width:0.5px;}.cls-15{stroke-width:0.33px;}</style></defs><title>Mode</title><g id="Layer_3" data-name="Layer 3"><path class="cls-1" d="M209.22,163.33C209.39,145.9,190.1,99,190.1,99s-10.24-5.46-14-6.36h0c-14-3.37-43.32-2-57.4,1.28a72.79,72.79,0,0,0-7.28,2.51h0a43.17,43.17,0,0,0-4.23,1.91h0l-6.59,3s-16.92,47.4-16.75,64.83c.09,9.53-4.5,26.88,31.65,32.66L118.85,236l26.06-12.66L171,236l4.83-39.78C213.87,190.77,209.13,173,209.22,163.33ZM105.7,165.09c.39-2.4,5.59-15.34,5.59-15.34v-1.8l2.12,25.71C111.19,171.87,105.38,167,105.7,165.09Zm73.12,6.35,3-24.57s5.2,12.94,5.59,15.34S178.82,171.44,178.81,171.45Z"/><path class="cls-2" d="M100.61,101.37l-9.86,30.73s-14.8,47.22-2.08,55.38c0,0,6.91,9,26.21,11.07l.38-2.54s-20.74-4.15-24-10.11-10.57-4.07-.95-43.29c0,0,11.23-37.34,11.9-38.55S100.61,101.37,100.61,101.37Z"/><path class="cls-2" d="M190.1,99l8.42,22.16s20.26,49.14,5.73,63.6c0,0-8,9.35-27.27,11.47l-.38-2.54s20.74-4.15,24-10.11,10.57-4.07.95-43.29c0,0-11.64-37.36-12.32-38.58S190.1,99,190.1,99Z"/><rect class="cls-2" x="125.58" y="81.6" width="13.97" height="18.31"/><rect class="cls-3" x="139.56" y="81.6" width="13.97" height="18.31"/><polygon class="cls-3" points="181.48 99.91 174.81 90.75 167.5 81.6 167.5 99.91 181.48 99.91"/><polygon class="cls-3" points="125.58 99.91 125.58 81.6 118.59 90.75 111.61 99.91 125.58 99.91"/><rect class="cls-2" x="153.53" y="81.6" width="13.97" height="18.31"/><rect class="cls-2" x="111.61" y="99.91" width="18.94" height="18.96"/><rect class="cls-3" x="111.61" y="118.87" width="18.94" height="18.96"/><rect class="cls-2" x="162.53" y="99.91" width="18.94" height="18.96"/><rect class="cls-3" x="162.53" y="118.87" width="18.94" height="18.96"/><rect class="cls-2" x="111.61" y="137.61" width="18.94" height="18.96"/><rect class="cls-3" x="111.61" y="156.56" width="18.94" height="18.96"/><rect class="cls-2" x="162.53" y="137.61" width="18.94" height="18.96"/><rect class="cls-3" x="162.53" y="156.56" width="18.94" height="18.96"/><line class="cls-4" x1="163.5" y1="175.9" x2="163.5" y2="185.01"/><line class="cls-4" x1="165.05" y1="175.9" x2="165.05" y2="185.01"/><line class="cls-4" x1="166.84" y1="175.9" x2="166.84" y2="185.01"/><line class="cls-4" x1="168.69" y1="175.9" x2="168.69" y2="185.01"/><line class="cls-4" x1="170.6" y1="175.9" x2="170.6" y2="185.01"/><line class="cls-4" x1="172.57" y1="175.9" x2="172.57" y2="185.01"/><line class="cls-4" x1="174.53" y1="175.9" x2="174.53" y2="185.01"/><line class="cls-4" x1="176.39" y1="175.9" x2="176.39" y2="185.01"/><line class="cls-4" x1="178.24" y1="175.9" x2="178.24" y2="185.01"/><line class="cls-4" x1="180.14" y1="175.9" x2="180.14" y2="185.01"/><line class="cls-4" x1="112.76" y1="175.9" x2="112.76" y2="185.01"/><line class="cls-4" x1="114.3" y1="175.9" x2="114.3" y2="185.01"/><line class="cls-4" x1="116.1" y1="175.9" x2="116.1" y2="185.01"/><line class="cls-4" x1="117.95" y1="175.9" x2="117.95" y2="185.01"/><line class="cls-4" x1="119.86" y1="175.9" x2="119.86" y2="185.01"/><line class="cls-4" x1="121.82" y1="175.9" x2="121.82" y2="185.01"/><line class="cls-4" x1="123.78" y1="175.9" x2="123.78" y2="185.01"/><line class="cls-4" x1="125.65" y1="175.9" x2="125.65" y2="185.01"/><line class="cls-4" x1="127.49" y1="175.9" x2="127.49" y2="185.01"/><line class="cls-4" x1="129.4" y1="175.9" x2="129.4" y2="185.01"/><text class="cls-5" transform="translate(113.12 167.91)">1904</text><path class="cls-6" d="M169.16,161.94v3.83a1.1,1.1,0,0,0,.27.77c.15.15,2.53,1.8,2.56,1.82s2.42-1.67,2.56-1.82a1.1,1.1,0,0,0,.27-.77v-3.83Z"/><path class="cls-2" d="M174.62,163.13v-1h-5.25v1Z"/><path class="cls-3" d="M169.37,163.32v2.46a.89.89,0,0,0,.21.62l.54.4v-3.48Z"/><path class="cls-2" d="M170.12,163.32v3.48l.75.53v-4Z"/><path class="cls-3" d="M170.87,163.32v4l.75.52v-4.53Z"/><path class="cls-2" d="M171.62,163.32v4.53l.38.26.37-.26v-4.53Z"/><path class="cls-3" d="M172.37,163.32v4.53l.75-.52v-4Z"/><path class="cls-2" d="M173.12,163.32v4l.75-.53v-3.48Z"/><path class="cls-3" d="M173.87,163.32v3.48l.54-.4a.89.89,0,0,0,.21-.62v-2.46Z"/><path class="cls-6" d="M170.64,163.06h-.22l-.22-.32,0,0v.28H170v-.82h.18v.32l.34-.33.11.11-.27.27Z"/><polygon class="cls-6" points="172.06 162.25 171.86 162.74 171.66 162.25 171.46 162.25 171.82 163.06 171.9 163.06 172.25 162.25 172.06 162.25"/><path class="cls-6" d="M174,163.06h-.19l-.09-.46-.17.45h-.08l-.15-.43-.09.44h-.18l.18-.82h.07l.22.48.21-.48h.08Z"/><path class="cls-6" d="M171,164.12v1.33a.48.48,0,0,0,.24.38l.78.53.78-.53a.48.48,0,0,0,.24-.38v-1.33Z"/><path d="M172.92,164.75a.24.24,0,0,1-.22-.06.31.31,0,0,0,.2-.08.08.08,0,0,0,0,0v0h0a.21.21,0,0,1-.18,0,.36.36,0,0,0,.13-.1.22.22,0,0,0,0-.12.1.1,0,0,0,0-.08h0l-.16.1a.47.47,0,0,1-.2,0h0s-.09,0-.11,0a.26.26,0,0,0,0,.16.27.27,0,0,1,0,.15s-.06.14-.11.14-.08-.15-.08-.21a.63.63,0,0,1,0-.12.49.49,0,0,0,0-.16.14.14,0,0,0-.16-.12h-.16a0,0,0,0,0,0,0l-.1,0h0a.14.14,0,0,0,0,.08h0l.05,0h.08l0,0h-.07s0,0,0,0,0,0,0,0h.11a.14.14,0,0,0,0,.09h0a.24.24,0,0,1,.08.16h0a.3.3,0,0,1-.11.24.23.23,0,0,1,0,0v-.08h0a.13.13,0,0,1-.1,0,.31.31,0,0,1-.05-.22v-.05a.25.25,0,0,0,0-.12s-.07,0-.11,0h0a.47.47,0,0,1-.2,0l-.16-.1h0a.1.1,0,0,0,0,.08.22.22,0,0,0,0,.12.37.37,0,0,0,.13.1.21.21,0,0,1-.18,0h0v0a.08.08,0,0,0,0,0,.31.31,0,0,0,.2.08.24.24,0,0,1-.22.06h0v0a.12.12,0,0,0,0,.09.35.35,0,0,0,.22,0h0l-.05,0a.25.25,0,0,1-.14,0h0l0,0a.32.32,0,0,0,.34.14.42.42,0,0,1-.24.1h0l0,0,0,0,0,0,.1,0a.43.43,0,0,0,.16,0,.38.38,0,0,1-.1.1h0a.17.17,0,0,0,.14,0,.53.53,0,0,0,.28-.18h0a.11.11,0,0,1,0,0,.58.58,0,0,1-.26.24h-.12c-.07,0-.15,0-.17.11v0h0a.19.19,0,0,1,.17,0s-.17.15-.2.15h0a.21.21,0,0,0,.19,0,.16.16,0,0,0,0,.07.14.14,0,0,0,0,0,.12.12,0,0,0,.07.09v0h0a.65.65,0,0,1,.4-.46.54.54,0,0,1-.05.14.24.24,0,0,1-.08.08l-.06,0a.13.13,0,0,0,0,.09v0a.09.09,0,0,0,.15,0l0,0h0a.06.06,0,0,1,0,0s0,.06,0,.08a.15.15,0,0,0-.06.11.14.14,0,0,0,.05.1.12.12,0,0,0,.1,0,.12.12,0,0,0,.09,0,.14.14,0,0,0,.05-.1.11.11,0,0,0,0-.1.12.12,0,0,1,0-.06.08.08,0,0,1,0-.08h0l0,0a.09.09,0,0,0,.15,0v0a.13.13,0,0,0,0-.09l-.06,0a.24.24,0,0,1-.08-.08.53.53,0,0,1-.05-.14.65.65,0,0,1,.4.46h0v0a.12.12,0,0,0,.07-.09.15.15,0,0,0,0,0,.16.16,0,0,0,0-.07.21.21,0,0,0,.19,0h0s-.2-.13-.2-.15a.19.19,0,0,1,.17,0h0v0c0-.09-.1-.1-.17-.11h-.12a.58.58,0,0,1-.26-.24.11.11,0,0,1,0,0h0a.53.53,0,0,0,.28.18.17.17,0,0,0,.14,0h0a.38.38,0,0,1-.1-.1.43.43,0,0,0,.16,0l.1,0,0,0,0,0h0a.42.42,0,0,1-.24-.1.32.32,0,0,0,.34-.14l0,0h0a.25.25,0,0,1-.14,0l-.05,0h0a.34.34,0,0,0,.22,0,.12.12,0,0,0,0-.09v0Z"/><path class="cls-6" d="M177.63,166.28a2.56,2.56,0,0,0-1,.61,4.86,4.86,0,0,0,.23-.64,1.54,1.54,0,0,0,.79-1.44,4.69,4.69,0,0,0-.65.67,4.19,4.19,0,0,0,0-.59,1.37,1.37,0,0,0,.38-1.57,1.5,1.5,0,0,0-.49.78,4.64,4.64,0,0,0-.22-.69c.14-.13.61-.68,0-1.75a2.89,2.89,0,0,0-.35,1,6.72,6.72,0,0,0-.49-.71s0-.85-1.1-1a1,1,0,0,0,1,1,6.9,6.9,0,0,1,.62,1,2.27,2.27,0,0,0-1-.45,1.59,1.59,0,0,0,1.29,1.08,4.83,4.83,0,0,1,.21.8,2.46,2.46,0,0,0-1.2-.68,1.41,1.41,0,0,0,1.26,1.22,4.33,4.33,0,0,1,0,.8,1.85,1.85,0,0,0-1-1,1.38,1.38,0,0,0,.92,1.5,4.84,4.84,0,0,1-.35.92,1.49,1.49,0,0,0-.65-1.21s-.26,1.09.46,1.57a5.73,5.73,0,0,1-.58.81c0-.26.1-1-.25-1.29a1.64,1.64,0,0,0,0,1.6l-.15.14c-.28.07-.56.17-.84.27a5.6,5.6,0,0,1-4.56,0c-.29-.1-.57-.2-.84-.27l-.15-.14a1.64,1.64,0,0,0,0-1.6c-.35.28-.29,1-.25,1.29a5.73,5.73,0,0,1-.58-.81c.71-.47.46-1.57.46-1.57a1.49,1.49,0,0,0-.65,1.21,4.84,4.84,0,0,1-.35-.92,1.38,1.38,0,0,0,.92-1.5,1.85,1.85,0,0,0-1,1,4.32,4.32,0,0,1,0-.8,1.41,1.41,0,0,0,1.25-1.22,2.46,2.46,0,0,0-1.2.68,4.83,4.83,0,0,1,.21-.8,1.59,1.59,0,0,0,1.29-1.08,2.27,2.27,0,0,0-1,.45,6.9,6.9,0,0,1,.62-1,1,1,0,0,0,1-1c-1.15.17-1.1,1-1.1,1a6.72,6.72,0,0,0-.49.71,2.89,2.89,0,0,0-.35-1c-.64,1.07-.17,1.62,0,1.75a4.64,4.64,0,0,0-.22.69,1.5,1.5,0,0,0-.49-.78,1.37,1.37,0,0,0,.38,1.57,4.17,4.17,0,0,0,0,.59,4.69,4.69,0,0,0-.65-.67,1.54,1.54,0,0,0,.79,1.44,4.86,4.86,0,0,0,.23.64,2.56,2.56,0,0,0-1-.61,1.43,1.43,0,0,0,1.38,1.26c.11.18.23.35.34.5a3.64,3.64,0,0,0-1.17-.24,1.67,1.67,0,0,0,1.59.74l.2.2a2.6,2.6,0,0,0-.51-.05c-.37,0-1,0-1.15.31a3.24,3.24,0,0,0,.13,1.22,1,1,0,0,0,.12.31c.53.38,1.43-.1,1.44-.11l.12-.12a13.72,13.72,0,0,0,1.58.47,2.19,2.19,0,0,0-1.36.5,1.55,1.55,0,0,0,1.83-.4l.19,0,.59.61s-1.17-.19-1.65.28a1.88,1.88,0,0,0,1.33.19l-1,.81.08.26,1.58-1.32,1.58,1.32.08-.26-1-.81a1.88,1.88,0,0,0,1.33-.19c-.49-.47-1.65-.28-1.65-.28l.59-.61.19,0a1.55,1.55,0,0,0,1.83.4,2.19,2.19,0,0,0-1.36-.5,13.72,13.72,0,0,0,1.58-.47l.12.12s.92.49,1.44.11a1,1,0,0,0,.12-.31,3.24,3.24,0,0,0,.13-1.22c-.15-.27-.79-.31-1.15-.31a2.6,2.6,0,0,0-.51.05l.2-.2a1.67,1.67,0,0,0,1.59-.74,3.64,3.64,0,0,0-1.17.24c.11-.15.23-.31.34-.5A1.43,1.43,0,0,0,177.63,166.28Z"/><path class="cls-6" d="M174.49,159.91a.17.17,0,0,0-.11,0,.64.64,0,0,0,0-.14.17.17,0,1,0,0-.14v0h0a.75.75,0,0,0,0-.12l.09,0a.17.17,0,1,0-.17-.17v0l-.12-.12h0a.17.17,0,1,0-.17-.17.17.17,0,0,0,0,.08l-.14-.06a.17.17,0,1,0-.26,0h-.12l-.07-.06a.17.17,0,1,0-.2-.1l-.11,0a.17.17,0,1,0-.22,0h-.16a.17.17,0,1,0-.13,0h-.18l0,0h0a.35.35,0,0,0-.17-.38v0a1.66,1.66,0,0,1,0-.24l.16,0,.07,0v-.4h-.06l-.16,0a1.86,1.86,0,0,1,0-.21v-.06h-.35v.06a1.87,1.87,0,0,1,0,.21l-.16,0h-.06v.4l.07,0,.16,0a1.66,1.66,0,0,1,0,.24v0a.35.35,0,0,0-.17.38h0l0,0h-.18a.17.17,0,1,0-.13,0h-.16a.17.17,0,0,0,0-.11.17.17,0,1,0-.26.15l-.11,0a.17.17,0,1,0-.2.1l-.07.06h-.12a.17.17,0,0,0,0-.08.17.17,0,1,0-.28.13l-.14.06a.17.17,0,0,0,0-.08.17.17,0,1,0-.17.17h0l-.12.12v0a.17.17,0,1,0-.17.17l.09,0a.75.75,0,0,0,0,.12h0v0a.17.17,0,1,0,0,.14.63.63,0,0,0,0,.14.17.17,0,0,0-.11,0,.17.17,0,1,0,.17.2l.06.11a.17.17,0,0,0,0,.34h.06c0,.08,0,.13,0,.18a.14.14,0,0,0,.14,0h0v.11l.11.17.08.06.07,0h0a.17.17,0,0,0-.05.11.13.13,0,0,0,0,0,.2.2,0,0,0,.12.12h0c.16.24,1.28.32,1.68.32s1.52-.08,1.68-.32h0a.2.2,0,0,0,.12-.12.13.13,0,0,0,0,0,.17.17,0,0,0-.05-.11h0l.07,0,.08-.06.11-.17v-.11h0a.14.14,0,0,0,.14,0s0-.1,0-.18h.06a.17.17,0,0,0,0-.34l.06-.11a.17.17,0,1,0,.17-.2Z"/><path class="cls-2" d="M171.51,160.11a1.16,1.16,0,0,1-.16-.61,1,1,0,0,1,.13-.48c-.21,0-.73.07-.82.41a1,1,0,0,0,.16.76Z"/><path class="cls-2" d="M171,160.58l.25.11-.21.17-.25-.11Z"/><circle class="cls-2" cx="172" cy="160.56" r="0.18"/><circle class="cls-2" cx="170.06" cy="160.97" r="0.18"/><path class="cls-2" d="M170.47,160.16a.19.19,0,1,1-.15-.31h0l0-.06a.19.19,0,1,1-.12-.33h.07s0-.07,0-.1h0c-.15,0-.46.09-.48.38a.78.78,0,0,0,.26.68,3.34,3.34,0,0,1,.49-.18Z"/><path class="cls-2" d="M172,161.09a3.32,3.32,0,0,0-1.6.27,4.86,4.86,0,0,0,3.2,0A3.32,3.32,0,0,0,172,161.09Z"/><path class="cls-2" d="M172.21,158.9a.3.3,0,0,1-.43,0,1.13,1.13,0,0,0-.2.61,1.92,1.92,0,0,0,.12.59h.59a1.92,1.92,0,0,0,.12-.59A1.13,1.13,0,0,0,172.21,158.9Z"/><path class="cls-2" d="M172.48,160.11a1.16,1.16,0,0,0,.16-.61,1,1,0,0,0-.13-.48c.21,0,.73.07.82.41a1,1,0,0,1-.16.76Z"/><path class="cls-2" d="M173,160.58l-.25.11.21.17.25-.11Z"/><circle class="cls-2" cx="173.94" cy="160.97" r="0.18"/><path class="cls-2" d="M173.52,160.16a.19.19,0,1,0,.15-.31h0l0-.06a.19.19,0,1,0,.12-.33h-.07s0-.07,0-.1h0c.15,0,.46.09.48.38a.78.78,0,0,1-.26.68,3.34,3.34,0,0,0-.49-.18Z"/><circle class="cls-6" cx="172" cy="159.22" r="0.16"/><circle class="cls-6" cx="172" cy="159.53" r="0.16"/><circle class="cls-6" cx="172" cy="159.84" r="0.16"/><path class="cls-6" d="M172.63,168.88c0-.25-.18-.42-.37-.4h0c-.19,0-.31.22-.29.47s.18.42.37.4S172.65,169.13,172.63,168.88Zm-.31.26c-.07,0-.13-.09-.14-.21s0-.23.1-.24.13.09.14.21S172.38,169.13,172.32,169.13Z"/><path class="cls-6" d="M171.47,168.41a.33.33,0,0,0-.33.33.31.31,0,0,0,.28.33.51.51,0,0,1-.27.18l.25.06a.72.72,0,0,0,.4-.57A.33.33,0,0,0,171.47,168.41Zm0,.45a.12.12,0,1,1,.12-.12A.12.12,0,0,1,171.47,168.86Z"/><polygon class="cls-6" points="170.78 168.24 170.62 168.37 170.79 168.44 170.52 169.01 170.72 169.11 171.07 168.35 170.78 168.24"/><path class="cls-6" d="M173.47,168.81l-.08-.18-.1,0-.19-.41-.21.08-.11.56.07.19.32-.14.09.19.2-.09-.09-.19Zm-.52,0,.06-.24.08.17Z"/><path class="cls-2" d="M172,170.79c-2,0-3.25-.88-3.87-.88s-.79.26-.79.26a4.52,4.52,0,0,1-.15-1.11c.08-.13.45-.23,1-.23,1.07,0,2.11.85,3.8.85s2.73-.85,3.8-.85c.56,0,.94.09,1,.23a4.52,4.52,0,0,1-.15,1.11s-.17-.26-.79-.26S174,170.79,172,170.79Z"/><path class="cls-2" d="M176.66,170.34s-.17-.26-.79-.26a.67.67,0,0,0-.51.21s.88.45,1.3.06Z"/><path class="cls-2" d="M167.33,170.34s.17-.26.79-.26a.67.67,0,0,1,.51.21S167.75,170.74,167.33,170.34Z"/><path class="cls-6" d="M168.37,169.75l-.23,0-.25-.31,0,0,0,.29h-.19l-.06-.84h.19l0,.33.32-.37.13.11-.27.3Z"/><path class="cls-6" d="M169.87,169.49l-.6.62-.08,0,0-.86h.18l0,.57.39-.42Z"/><path class="cls-6" d="M171,170.61l-.19,0,0-.48-.26.36-.08,0-.06-.41-.19.42-.18,0,.37-.78.07,0,.11.54.33-.44.08,0Z"/><path class="cls-6" d="M171.65,170.66l-.5,0,.08-.84.48,0V170l-.3,0,0,.22.31,0v.09l-.31,0,0,.23.32,0Z"/><path class="cls-6" d="M172.35,170.49l-.11,0a.19.19,0,0,1-.17-.07.35.35,0,0,1-.06-.2.28.28,0,0,1,.06-.2.21.21,0,0,1,.16-.08h.09l0,0,0-.16-.07,0h-.12a.38.38,0,0,0-.31.13.5.5,0,0,0,0,.62.39.39,0,0,0,.3.11l.12,0,.11,0v-.16Z"/><path class="cls-6" d="M173.3,170.52l-.18,0,0-.35-.23,0,0,.35-.18,0-.12-.84.18,0,0,.35.23,0,0-.35.18,0Z"/><path class="cls-6" d="M174,170.35l-.49.12-.21-.82.47-.12,0,.14-.29.07.06.22.3-.08,0,.09-.3.08.06.23.31-.08Z"/><path class="cls-6" d="M174.7,170.14l-.49.17-.28-.8.18-.06.23.66.31-.11Z"/><path class="cls-6" d="M175.26,169.88l-.47.18-.3-.79.45-.17.05.14-.28.11.08.21.29-.11,0,.09-.29.11.08.22.3-.11Z"/><path class="cls-6" d="M176,169.75H176l-.45-.43.07.48-.18,0-.12-.84h.08l.45.43-.07-.48.18,0Z"/><circle class="cls-6" cx="168.69" cy="169.79" r="0.13"/><circle class="cls-6" cx="169.83" cy="170.22" r="0.13"/><rect class="cls-7" x="135.99" y="83.38" width="19.96" height="17.2"/><polygon class="cls-7" points="163.76 84.38 126.35 86.38 130.35 34.6 162.76 34.6 163.76 84.38"/><polygon class="cls-8" points="130.35 35.41 126.35 85.81 129.4 85.81 133.4 35.41 130.35 35.41"/><path class="cls-9" d="M161.75,29.48c-6.27-2.92-14.18-6.24-21.2-4-9.6,3-10.64,13.7-18,19C123,44,133.16,46.5,135,46.23c4.65-.69,9.3-3.68,13.64-5.44,13.92-5.65,9.73-1.14,13.12,11.27,0,.06,4.91-7.74,5.21-9.65C167.79,37,166.81,32.42,161.75,29.48Z"/><path class="cls-10" d="M133.84,55.45a4.35,4.35,0,0,0-.43.3A3,3,0,0,1,139,56,4.33,4.33,0,0,0,133.84,55.45Z"/><path class="cls-10" d="M149.34,55.45a4.35,4.35,0,0,0-.43.3,3,3,0,0,1,5.62.26A4.33,4.33,0,0,0,149.34,55.45Z"/><path class="cls-9" d="M140.47,49.24a6.11,6.11,0,0,0-8.39.16l.26-.29a6.14,6.14,0,0,1,8.67-.42Z"/><path class="cls-9" d="M147.56,49.24a6.11,6.11,0,0,1,8.39.16l-.26-.29a6.14,6.14,0,0,0-8.67-.42Z"/><g class="cls-11"><path class="cls-12" d="M143.09,67.88c-1.34-.53.08-9.65.6-12.73-1.18,2.68-4.94,11.52-3.75,12.38a4.83,4.83,0,0,0,3.47.45Z"/></g><line class="cls-13" x1="138" y1="75.5" x2="147.02" y2="75.5"/><line class="cls-14" x1="140.3" y1="77.97" x2="144.72" y2="77.97"/><ellipse class="cls-7" cx="163.76" cy="54.91" rx="1.48" ry="2.5"/><path class="cls-15" d="M164.14,55.92a1.93,1.93,0,0,0,.44-2.08.72.72,0,0,0-1.21-.23,1.24,1.24,0,0,0-.28,1.33"/><polygon class="cls-10" points="126.43 85.81 126.35 86.38 163.76 84.38 163.74 83.81 126.43 85.81"/><polygon class="cls-10" points="135.94 85.72 135.94 93.05 155.9 89.24 155.9 84.72 135.94 85.72"/></g></svg>