<svg xmlns="http://www.w3.org/2000/svg" viewBox="0 0 293 260.76"><defs><style>.cls-1,.cls-13{fill:#fff;}.cls-1{stroke:#000;stroke-width:0.25px;}.cls-1,.cls-10,.cls-11,.cls-12{stroke-miterlimit:10;}.cls-2{fill:#ffcd94;}.cls-3{fill:#757575;}.cls-4{fill:#1d1d1d;}.cls-5,.cls-7,.cls-9{fill:#b09065;}.cls-5{opacity:0.3;}.cls-6{fill:#5d4037;}.cls-10,.cls-11,.cls-12,.cls-7,.cls-8{opacity:0.5;}.cls-10,.cls-11,.cls-12{fill:none;stroke:#b09065;stroke-linecap:round;}.cls-10{stroke-width:0.5px;}.cls-12{stroke-width:0.33px;}</style></defs><title>Mode</title><g id="Layer_3" data-name="Layer 3"><polygon class="cls-1" points="137.72 96.25 123.34 89.38 112.45 97.13 103.38 89.38 92.1 94.2 109.94 156.96 137.72 96.25"/><rect class="cls-2" x="103.38" y="78.8" width="19.96" height="17.2"/><ellipse class="cls-3" cx="210.05" cy="100.96" rx="43.76" ry="2.59"/><polygon class="cls-2" points="131.15 79.8 93.74 81.8 97.74 30.03 130.15 30.03 131.15 79.8"/><path class="cls-4" d="M92.1,94.2l-23.32,7.55s-36.35,75.45-28.47,87.11c0,0,0,5.49,38.07,11,0,0,3.09-14.06-1.37-25.38,0,0-11.75-3.09-11.36-5.49s6.9-16.46,6.9-16.46l1.71,18.18,6.17,68.94,26.07-12.66,26.07,12.66L145.26,135s22.29,46.3,25.72,45.61,38.07-56.25,38.07-56.25l-25-6.17s-7.55,21.61-9.26,19.89-16.12-38.75-16.12-38.75l-20.92-3.09L109.94,157Z"/><path class="cls-2" d="M219.15,105H191.43s-3.1.67-2.85,11.14l14.48,3.6S203,110.64,219.15,105Z"/><path class="cls-4" d="M125.25,90.84l-9.16,3.43a3.61,3.61,0,0,0-2.24-.78h-2.3a3.61,3.61,0,0,0-2.39.91l-9.51-3.56a2.06,2.06,0,0,0-2.79,1.93v8.71a2.06,2.06,0,0,0,2.79,1.93l9.51-3.56a3.61,3.61,0,0,0,2.39.91h2.3a3.61,3.61,0,0,0,2.24-.78l9.16,3.43a2.06,2.06,0,0,0,2.79-1.93V92.77A2.06,2.06,0,0,0,125.25,90.84Z"/><polygon class="cls-5" points="97.74 30.84 93.74 81.24 96.8 81.24 100.8 30.84 97.74 30.84"/><path class="cls-6" d="M129.14,25.91c-6.27-2.92-14.18-6.24-21.2-4-9.6,3-10.64,13.7-18,19,.48-.34,10.62,2.11,12.44,1.84C107,42,111.69,39,116,37.22c13.92-5.65,9.73-1.14,13.12,11.27,0,.06,4.91-7.74,5.21-9.65C135.18,33.46,134.2,28.85,129.14,25.91Z"/><circle class="cls-4" cx="111.16" cy="110.57" r="2.15"/><circle class="cls-4" cx="111.16" cy="122.19" r="2.15"/><circle class="cls-4" cx="111.16" cy="133.81" r="2.15"/><path class="cls-7" d="M121.25,51.13a4.35,4.35,0,0,0,.43-.3,3,3,0,0,1-5.62-.26A4.33,4.33,0,0,0,121.25,51.13Z"/><path class="cls-7" d="M105.75,51.13a4.35,4.35,0,0,0,.43-.3,3,3,0,0,1-5.62-.26A4.33,4.33,0,0,0,105.75,51.13Z"/><path class="cls-6" d="M107.87,47.67a6.11,6.11,0,0,0-8.39.16l.26-.29a6.14,6.14,0,0,1,8.67-.42Z"/><path class="cls-6" d="M115,47.67a6.11,6.11,0,0,1,8.39.16l-.26-.29a6.14,6.14,0,0,0-8.67-.42Z"/><g class="cls-8"><path class="cls-9" d="M110.48,63.31c-1.34-.53.08-9.65.6-12.73-1.18,2.68-4.94,11.52-3.75,12.38a4.83,4.83,0,0,0,3.47.45Z"/></g><line class="cls-10" x1="105.39" y1="70.93" x2="114.41" y2="70.93"/><line class="cls-11" x1="107.69" y1="73.39" x2="112.11" y2="73.39"/><ellipse class="cls-2" cx="131.15" cy="50.34" rx="1.48" ry="2.5"/><path class="cls-12" d="M131.54,51.35a1.93,1.93,0,0,0,.44-2.08.72.72,0,0,0-1.21-.23,1.24,1.24,0,0,0-.28,1.33"/><polygon class="cls-7" points="93.82 81.24 93.74 81.8 131.15 79.8 131.13 79.24 93.82 81.24"/><polygon class="cls-7" points="103.33 81.15 103.33 88.47 123.29 84.67 123.29 80.15 103.33 81.15"/><path class="cls-13" d="M84.67,175.94S91.14,196,88.17,226h34V185.17S99.52,175.41,84.67,175.94Z"/></g></svg>