<svg xmlns="http://www.w3.org/2000/svg" viewBox="0 0 114.33 131.35"><defs><style>.cls-1{fill:#ecf0f1;}.cls-2{fill:#f1c40f;}.cls-3{fill:#f39c12;}</style></defs><title>Asset 9assets</title><g id="Layer_2" data-name="Layer 2"><g id="Layer_5" data-name="Layer 5"><path class="cls-1" d="M83,31V47.53a14.86,14.86,0,1,1,0,29.72V93.77A31.38,31.38,0,1,0,83,31Z"/><path class="cls-1" d="M83.21,15.91C83.1,7.12,64.52,0,41.61,0S.12,7.12,0,15.91H0v99.44c0,8.83,18.63,16,41.61,16s41.61-7.16,41.61-16V15.91Z"/><path class="cls-2" d="M83.21,39.88C83.1,34.44,64.52,30,41.61,30S.12,34.44,0,39.88H0v61.54c0,5.47,18.63,9.9,41.61,9.9s41.61-4.43,41.61-9.9V39.88Z"/><rect class="cls-3" x="14.05" y="37.09" width="13.38" height="67.18" rx="6.69" ry="6.69"/><rect class="cls-3" x="35.01" y="37.09" width="13.38" height="67.18" rx="6.69" ry="6.69"/><rect class="cls-3" x="56.01" y="37.09" width="13.38" height="67.18" rx="6.69" ry="6.69"/></g></g></svg>