<?xml version="1.0" encoding="utf-8"?>
<!-- Generator: Adobe Illustrator 21.1.0, SVG Export Plug-In . SVG Version: 6.00 Build 0)  -->
<svg version="1.1" id="Capa_1" xmlns="http://www.w3.org/2000/svg" xmlns:xlink="http://www.w3.org/1999/xlink" x="0px" y="0px"
	 viewBox="0 0 52 52" style="enable-background:new 0 0 52 52;" xml:space="preserve">
<style type="text/css">
	.st0{fill:#E6E6E6;}
	.st1{fill:#A6A6A6;}
</style>
<g>
	<path class="st0" d="M44.5,20.2h-6v4h4c1.1,0,2,0.9,2,2v10c0,1.1-0.9,2-2,2h-4v4h6c2.2,0,4-1.8,4-4v-14
		C48.5,22,46.7,20.2,44.5,20.2z"/>
	<path class="st0" d="M26.6,12c0,3.3-2.7,6-6,6c-2,0-3.8-1-4.9-2.6c-0.7,0.9-1.9,1.6-3.1,1.6h-2c-0.8,0-1.5-0.2-2.1-0.6V47
		c0,2.8,2.2,5,5,5h20c2.8,0,5-2.2,5-5V12H26.6z"/>
	<path class="st0" d="M14.5,25c0-1.6-1.4-3-3-3s-3,1.4-3,3v21h6V25z"/>
	<path class="st1" d="M20.5,25c0-1.6-1.4-3-3-3s-3,1.4-3,3v21h6V25z"/>
	<path class="st0" d="M26.5,25c0-1.6-1.4-3-3-3s-3,1.4-3,3v21h6V25z"/>
	<path class="st1" d="M32.5,25c0-1.6-1.4-3-3-3s-3,1.4-3,3v21h6V25z"/>
	<path class="st0" d="M38.5,25c0-1.6-1.3-3-3-3s-3,1.4-3,3v21h6V25z"/>
	<polygon class="st0" points="26.6,12 8.5,12 8.5,18.1 26.9,18.1 26.9,12 	"/>
</g>
</svg>
