<?xml version="1.0" encoding="utf-8"?>
<!-- Generator: Adobe Illustrator 21.1.0, SVG Export Plug-In . SVG Version: 6.00 Build 0)  -->
<svg version="1.1" id="Capa_1" xmlns="http://www.w3.org/2000/svg" xmlns:xlink="http://www.w3.org/1999/xlink" x="0px" y="0px"
	 viewBox="0 0 512 512" style="enable-background:new 0 0 512 512;" xml:space="preserve">
<style type="text/css">
	.st0{fill:#E8B646;}
</style>
<g>
	<g>
		<path class="st0" d="M0,512h232.7V279.3H0V512z M46.5,325.8h139.6v139.3H46.5V325.8z"/>
		<rect x="93.1" y="372.4" class="st0" width="46.5" height="46.6"/>
		<rect x="372.4" y="465.5" class="st0" width="46.6" height="46.5"/>
		<rect x="465.4" y="465.5" class="st0" width="46.6" height="46.5"/>
		<polygon class="st0" points="465.5,325.8 418.9,325.8 418.9,279.3 279.3,279.3 279.3,512 325.8,512 325.8,372.4 372.4,372.4 
			372.4,418.9 512,418.9 512,279.3 512,279.3 465.5,279.3 		"/>
		<path class="st0" d="M0,232.7h232.7V0H0V232.7z M46.5,46.5h139.6v139.6H46.5V46.5z"/>
		<rect x="93.1" y="93.1" class="st0" width="46.5" height="46.5"/>
		<path class="st0" d="M279.3,0v232.7H512V0H279.3z M465.5,186.2H325.8V46.5h139.6V186.2z"/>
		<rect x="372.4" y="93.1" class="st0" width="46.6" height="46.5"/>
	</g>
</g>
</svg>
