<svg xmlns="http://www.w3.org/2000/svg" viewBox="0 0 329.6 372.11"><defs><style>.cls-1{fill:#ffcd94;}.cls-2{fill:#757575;}.cls-3,.cls-5{fill:#fff;}.cls-3,.cls-6{stroke:#fff;stroke-width:0.49px;}.cls-10,.cls-3,.cls-6{stroke-miterlimit:10;}.cls-4{fill:#efefef;}.cls-10,.cls-6{fill:none;}.cls-7{fill:#fd0;}.cls-10,.cls-7,.cls-9{opacity:0.5;}.cls-8{fill:#5d4037;}.cls-9{fill:#b09065;}.cls-10{stroke:#b09065;stroke-linecap:round;stroke-width:0.53px;}.cls-11{fill:#1d1d1d;}</style></defs><title>Asset 14</title><g id="Layer_2" data-name="Layer 2"><g id="Layer_1-2" data-name="Layer 1"><path d="M44.66,95c8.4-5.31,17.93-14.24,27.3-17.26C77.17,76,84.17,77.1,89.69,77c13.82-.32,28.72-.45,42.54-.77,8.24-.19,19.21-2.71,27.44-.64,6.37,1.61,17.53,9.78,22.6,14.85,2.78,2.78,3.75,8.23,6.63,10.76,2.58,2.26,7.32,3,10.27,4.12l18.35,7c2.74,1,10.73,5.84,13.64,5.17,2.39-.55,5.5-6.58,7.1-8.73l13.43-18c3.12-4.19,3.6-6.55,7.41-6.25,4.5.34,12,7.46,16.2,10l-21.87,35.37c-1.87,3-5.37,12.11-8.44,13.65-2.24,1.12-8.09-1-10.64-1.34l-25.43-3.78c-6.19-.92-13.2-3.58-19.32-2.84-1.34.16-2.43-.82-3.37,0-1.81,1.61-1.38,8.42-1.43,10.74-.25,10.33.8,20.85,1.89,31.19a88.94,88.94,0,0,1,.22,12.66c0,3.43-.12,5.4.31,6.83a11,11,0,0,0,2.45,3.06c4.95,4.85,11.84,7.52,17.56,11.07l22.65,14c8.06,5,11.13,6.09,15.11,15.08l21.51,48.61,12.15,27.45c1.14,2.57,6.48,10.81,6.09,13.76s-10.1,8.45-12.4,10.26l-17.58,13.8-25.17-59.43c-4.42-10.43-8.47-21.22-13.3-31.4-3.18-6.71-5.81-5.4-12.91-6.68l-18.8-3.4c-1.3-.24-8.79-2.77-10-1.75s-1.88,8.43-2.23,10l-4.76,21.42c-3.35,15.06-5.24,36.66-22.49,35.08l-67.6-6.15,4-27.65c1.26-8.72.52-8,7.95-6.72l48.36,8.15c-.23-18.81.26-37.82-.69-56.6-.32-6.37-1-12.47-1.88-18.47-3-7.35-5.1-14-2.76-22.56,4.06-14.81,5-28.42-2.87-47.28-1.47-3.52-5.6-21.7-7.44-24.19-1.32-1.79-8.16-2.84-10-3.5-5.52-1.92-12.12-4-17.64-6-4.73-1.65-11.52-5.54-16.25-5-8.13,1-18.4,9.9-25.61,13.78L29.88,128.07,20.4,110.29Z"/><path class="cls-1" d="M300.79,79.91,269.23,69.48s-3.78-.4-7.43,11.61l15.14,9.55S280.28,80.22,300.79,79.91Z"/><ellipse class="cls-2" cx="286.98" cy="69.61" rx="2.41" ry="40.72" transform="translate(127.63 318.22) rotate(-70.98)"/><path class="cls-3" d="M304,45.08a.53.53,0,0,1,0-.15v0c2.07-9.54,4.46-13.17,4.62-13.4h0c.42-1.22,5.4-.61,11.11,1.36s10,4.56,9.59,5.78c0,0-.23,4.33-4.63,13.44a.52.52,0,0,1-.06.11c-4.39,9-8.84,12.3-12.85,24.58-.26.76-3.35.38-6.9-.85s-6.22-2.83-6-3.59l0,0C303.34,60.18,301.87,54.86,304,45.08Z"/><path class="cls-4" d="M312.7,36.4A2.59,2.59,0,0,1,317,33.93a2.59,2.59,0,0,1,2.53-.77,2.59,2.59,0,0,1,5.07-.26l0,.08a2.59,2.59,0,0,1,2.47,3.48,2.58,2.58,0,0,1,.86,2.45,2.59,2.59,0,1,1-4.52,1.18,2.57,2.57,0,0,1-.43-.71,2.57,2.57,0,0,1-3.38-1.22l-.05,0a2.58,2.58,0,0,1-1,.06,2.59,2.59,0,0,1-5.14-.56A2.58,2.58,0,0,1,312.7,36.4Z"/><path class="cls-5" d="M314.75,38.65a81.26,81.26,0,0,0,3.92-2.26,1.8,1.8,0,0,1,.89,0,1.81,1.81,0,0,1,3.54-.18v.05a1.81,1.81,0,0,1,1.72,2.43,1.8,1.8,0,0,1,.6,1.71,1.81,1.81,0,1,1-3.16.82,1.79,1.79,0,0,1-.3-.5l-.28.1a1.81,1.81,0,0,1-2.08-.95h0a1.8,1.8,0,0,1-.7,0,1.81,1.81,0,0,1-3.59-.39A1.8,1.8,0,0,1,314.75,38.65Z"/><path class="cls-4" d="M307.92,34.43A2.59,2.59,0,0,1,312.27,32a2.59,2.59,0,0,1,2.53-.77,2.59,2.59,0,0,1,5.07-.26l0,.08a2.59,2.59,0,0,1,2.47,3.48,2.58,2.58,0,0,1,.86,2.45,2.59,2.59,0,1,1-4.52,1.18,2.57,2.57,0,0,1-.43-.71,2.57,2.57,0,0,1-3.38-1.22l-.05,0a2.58,2.58,0,0,1-1,.06,2.59,2.59,0,0,1-5.14-.56A2.58,2.58,0,0,1,307.92,34.43Z"/><path class="cls-5" d="M310,36.68a81.26,81.26,0,0,0,3.92-2.26,1.8,1.8,0,0,1,.89,0,1.81,1.81,0,0,1,3.54-.18v.05A1.81,1.81,0,0,1,320,36.72a1.8,1.8,0,0,1,.6,1.71,1.81,1.81,0,1,1-3.16.82,1.79,1.79,0,0,1-.3-.5l-.28.1a1.81,1.81,0,0,1-2.08-.95h0a1.8,1.8,0,0,1-.7,0,1.81,1.81,0,0,1-3.59-.39A1.8,1.8,0,0,1,310,36.68Z"/><path class="cls-3" d="M311.61,76.67c-.18.53-2.3.77-6.68-.74-4-1.39-6.07-3.1-5.89-3.62s3.22-.11,6.75,1.11S311.8,76.14,311.61,76.67Z"/><path class="cls-6" d="M309,31.37c.33-1,5.16-.47,10.78,1.47s9.88,4.59,9.55,5.54-5.15.16-10.76-1.78S308.63,32.33,309,31.37Z"/><path class="cls-7" d="M308,39h0c.71-2.47,2.57,1.94,8.37,3.57,3.35.94,4.53-2.14,8.15,1.19.38.35.65.61.71.83a.51.51,0,0,1,0,.36s-.14,3.48-3.71,10.76l0,.09c-3.55,7.21-7.21,9.8-10.41,19.63-.15.43-1.49.38-3.31,0h-.06l-.32-.08-1-.27h0l-.51-.16-.33-.11-.21-.07h0c-3-1-5.19-2.34-5-2.95l0,0c3.51-9.68,2.24-14,3.88-21.82a.41.41,0,0,1,0-.12v0C305.9,42.06,307.84,39.17,308,39Z"/><circle class="cls-5" cx="315.18" cy="45.24" r="0.23" transform="translate(169.67 328.46) rotate(-70.98)"/><circle class="cls-5" cx="315.84" cy="44.25" r="0.52" transform="translate(171.06 328.42) rotate(-70.98)"/><circle class="cls-5" cx="314.68" cy="45.36" r="0.08" transform="translate(169.22 328.06) rotate(-70.98)"/><circle class="cls-5" cx="315.26" cy="45.95" r="0.08" transform="translate(169.06 329.02) rotate(-70.98)"/><circle class="cls-5" cx="315.67" cy="45.4" r="0.08" transform="translate(169.86 329.03) rotate(-70.98)"/><circle class="cls-5" cx="322.06" cy="49.69" r="0.23" transform="translate(48.95 227.46) rotate(-41.83)"/><circle class="cls-5" cx="322.55" cy="49.83" r="0.08" transform="translate(48.98 227.83) rotate(-41.83)"/><circle class="cls-5" cx="322.33" cy="49.03" r="0.08" transform="translate(49.46 227.47) rotate(-41.83)"/><circle class="cls-5" cx="321.7" cy="49.31" r="0.08" transform="translate(49.11 227.13) rotate(-41.83)"/><circle class="cls-5" cx="309.81" cy="41.65" r="0.23" transform="translate(251.1 348.69) rotate(-86.83)"/><circle class="cls-5" cx="310.26" cy="41.41" r="0.08" transform="translate(251.77 348.91) rotate(-86.83)"/><circle class="cls-5" cx="309.54" cy="41" r="0.08" transform="translate(251.49 347.8) rotate(-86.83)"/><circle class="cls-5" cx="309.3" cy="41.64" r="0.08" transform="translate(250.63 348.16) rotate(-86.83)"/><circle class="cls-5" cx="320.47" cy="44.88" r="0.23" transform="translate(12.72 144.9) rotate(-25.98)"/><circle class="cls-5" cx="320.91" cy="45.15" r="0.08" transform="translate(12.64 145.12) rotate(-25.98)"/><circle class="cls-5" cx="320.91" cy="44.32" r="0.08" transform="translate(13.01 145.03) rotate(-25.98)"/><circle class="cls-5" cx="320.23" cy="44.42" r="0.08" transform="translate(12.9 144.75) rotate(-25.98)"/><circle class="cls-5" cx="307.53" cy="42.98" r="0.23" transform="translate(178.01 325.2) rotate(-73.3)"/><circle class="cls-5" cx="307.88" cy="43.36" r="0.08" transform="translate(177.88 325.8) rotate(-73.3)"/><circle class="cls-5" cx="307.05" cy="43.5" r="0.08" transform="translate(177.17 325.11) rotate(-73.3)"/><circle class="cls-5" cx="307.05" cy="42.81" r="0.08" transform="translate(177.82 324.61) rotate(-73.3)"/><path class="cls-3" d="M268,33a.53.53,0,0,1,0-.15v0c2.07-9.54,4.46-13.17,4.62-13.4h0c.42-1.22,5.4-.61,11.11,1.36s10,4.56,9.59,5.78c0,0-.23,4.33-4.63,13.44a.52.52,0,0,1-.06.11c-4.39,9-8.84,12.3-12.85,24.58-.26.76-3.35.38-6.9-.85s-6.22-2.83-6-3.59l0,0C267.33,48.09,265.87,42.77,268,33Z"/><path class="cls-4" d="M276.69,24.31A2.59,2.59,0,0,1,281,21.83a2.59,2.59,0,0,1,2.53-.77,2.59,2.59,0,0,1,5.07-.26l0,.08a2.59,2.59,0,0,1,2.47,3.48,2.58,2.58,0,0,1,.86,2.45A2.59,2.59,0,1,1,287.46,28a2.57,2.57,0,0,1-.43-.71,2.57,2.57,0,0,1-3.38-1.22l-.05,0a2.58,2.58,0,0,1-1,.06,2.59,2.59,0,0,1-5.14-.56A2.58,2.58,0,0,1,276.69,24.31Z"/><path class="cls-5" d="M278.74,26.56a81.26,81.26,0,0,0,3.92-2.26,1.8,1.8,0,0,1,.89,0,1.81,1.81,0,0,1,3.54-.18v.05a1.81,1.81,0,0,1,1.72,2.43,1.8,1.8,0,0,1,.6,1.71,1.81,1.81,0,1,1-3.16.82,1.79,1.79,0,0,1-.3-.5l-.28.1a1.81,1.81,0,0,1-2.08-.95h0a1.8,1.8,0,0,1-.7,0,1.81,1.81,0,0,1-3.59-.39A1.8,1.8,0,0,1,278.74,26.56Z"/><path class="cls-4" d="M271.91,22.34a2.59,2.59,0,0,1,4.35-2.47,2.59,2.59,0,0,1,2.53-.77,2.59,2.59,0,0,1,5.07-.26l0,.08a2.59,2.59,0,0,1,2.47,3.48,2.58,2.58,0,0,1,.86,2.45A2.59,2.59,0,1,1,282.68,26a2.57,2.57,0,0,1-.43-.71,2.57,2.57,0,0,1-3.38-1.22l-.05,0a2.58,2.58,0,0,1-1,.06,2.59,2.59,0,0,1-5.14-.56A2.58,2.58,0,0,1,271.91,22.34Z"/><path class="cls-5" d="M274,24.59a81.26,81.26,0,0,0,3.92-2.26,1.8,1.8,0,0,1,.89,0,1.81,1.81,0,0,1,3.54-.18v.05A1.81,1.81,0,0,1,284,24.63a1.8,1.8,0,0,1,.6,1.71,1.81,1.81,0,1,1-3.16.82,1.79,1.79,0,0,1-.3-.5l-.28.1a1.81,1.81,0,0,1-2.08-.95h0a1.8,1.8,0,0,1-.7,0,1.81,1.81,0,0,1-3.59-.39A1.8,1.8,0,0,1,274,24.59Z"/><path class="cls-3" d="M275.61,64.57c-.18.53-2.3.77-6.68-.74-4-1.39-6.07-3.1-5.89-3.62s3.22-.11,6.75,1.11S275.79,64,275.61,64.57Z"/><path class="cls-6" d="M273,19.28c.33-1,5.16-.47,10.78,1.47s9.88,4.59,9.55,5.54-5.15.16-10.76-1.78S272.62,20.24,273,19.28Z"/><path class="cls-7" d="M272,26.89h0c.71-2.47,2.57,1.94,8.37,3.57,3.35.94,4.53-2.14,8.15,1.19.38.35.65.61.71.83a.51.51,0,0,1,0,.36s-.14,3.48-3.71,10.76l0,.09c-3.55,7.21-7.21,9.8-10.41,19.63-.15.43-1.49.38-3.31,0h-.06l-.32-.08-1-.27h0l-.51-.16-.33-.11-.21-.07h0c-3-1-5.19-2.34-5-2.95l0,0c3.51-9.68,2.24-14,3.88-21.82a.41.41,0,0,1,0-.12v0C269.89,30,271.83,27.08,272,26.89Z"/><circle class="cls-5" cx="279.17" cy="33.15" r="0.23" transform="translate(156.83 286.27) rotate(-70.98)"/><circle class="cls-5" cx="279.84" cy="32.16" r="0.52" transform="translate(158.22 286.23) rotate(-70.98)"/><circle class="cls-5" cx="278.67" cy="33.26" r="0.08" transform="translate(156.38 285.87) rotate(-70.98)"/><circle class="cls-5" cx="279.26" cy="33.85" r="0.08" transform="translate(156.22 286.82) rotate(-70.98)"/><circle class="cls-5" cx="279.66" cy="33.3" r="0.08" transform="translate(157.02 286.83) rotate(-70.98)"/><circle class="cls-5" cx="286.05" cy="37.59" r="0.23" transform="translate(47.84 200.36) rotate(-41.83)"/><circle class="cls-5" cx="286.55" cy="37.74" r="0.08" transform="translate(47.87 200.73) rotate(-41.83)"/><circle class="cls-5" cx="286.32" cy="36.93" r="0.08" transform="translate(48.35 200.37) rotate(-41.83)"/><circle class="cls-5" cx="285.69" cy="37.22" r="0.08" transform="translate(48 200.03) rotate(-41.83)"/><circle class="cls-5" cx="273.8" cy="29.56" r="0.23" transform="translate(229.16 301.31) rotate(-86.83)"/><circle class="cls-5" cx="274.26" cy="29.31" r="0.08" transform="translate(229.83 301.53) rotate(-86.83)"/><circle class="cls-5" cx="273.53" cy="28.9" r="0.08" transform="translate(229.55 300.42) rotate(-86.83)"/><circle class="cls-5" cx="273.29" cy="29.55" r="0.08" transform="translate(228.68 300.79) rotate(-86.83)"/><circle class="cls-5" cx="284.46" cy="32.78" r="0.23" transform="translate(14.38 127.91) rotate(-25.98)"/><circle class="cls-5" cx="284.9" cy="33.06" r="0.08" transform="translate(14.3 128.12) rotate(-25.98)"/><circle class="cls-5" cx="284.9" cy="32.22" r="0.08" transform="translate(14.67 128.04) rotate(-25.98)"/><circle class="cls-5" cx="284.23" cy="32.33" r="0.08" transform="translate(14.55 127.75) rotate(-25.98)"/><circle class="cls-5" cx="271.53" cy="30.88" r="0.23" transform="translate(163.93 282.09) rotate(-73.3)"/><circle class="cls-5" cx="271.87" cy="31.27" r="0.08" transform="translate(163.8 282.69) rotate(-73.3)"/><circle class="cls-5" cx="271.05" cy="31.41" r="0.08" transform="translate(163.09 282) rotate(-73.3)"/><circle class="cls-5" cx="271.04" cy="30.72" r="0.08" transform="translate(163.74 281.5) rotate(-73.3)"/><path class="cls-3" d="M286,40.79a.53.53,0,0,1,0-.15v0c2.07-9.54,4.46-13.17,4.62-13.4h0c.42-1.22,5.4-.61,11.11,1.36s10,4.56,9.59,5.78c0,0-.23,4.33-4.63,13.44a.52.52,0,0,1-.06.11c-4.39,9-8.84,12.3-12.85,24.58-.26.76-3.35.38-6.9-.85s-6.22-2.83-6-3.59l0,0C285.35,55.89,283.88,50.57,286,40.79Z"/><path class="cls-4" d="M294.71,32.11a2.59,2.59,0,0,1,4.35-2.47,2.59,2.59,0,0,1,2.53-.77,2.59,2.59,0,0,1,5.07-.26l0,.08a2.59,2.59,0,0,1,2.47,3.48,2.58,2.58,0,0,1,.86,2.45,2.59,2.59,0,1,1-4.52,1.18,2.57,2.57,0,0,1-.43-.71,2.57,2.57,0,0,1-3.38-1.22l-.05,0a2.58,2.58,0,0,1-1,.06,2.59,2.59,0,0,1-5.14-.56A2.58,2.58,0,0,1,294.71,32.11Z"/><path class="cls-5" d="M296.75,34.36a81.26,81.26,0,0,0,3.92-2.26,1.8,1.8,0,0,1,.89,0,1.81,1.81,0,0,1,3.54-.18V32a1.81,1.81,0,0,1,1.72,2.43,1.8,1.8,0,0,1,.6,1.71,1.81,1.81,0,1,1-3.16.82,1.79,1.79,0,0,1-.3-.5l-.28.1a1.81,1.81,0,0,1-2.08-.95h0a1.8,1.8,0,0,1-.7,0,1.81,1.81,0,0,1-3.59-.39A1.8,1.8,0,0,1,296.75,34.36Z"/><path class="cls-4" d="M289.93,30.14a2.59,2.59,0,0,1,4.35-2.47,2.59,2.59,0,0,1,2.53-.77,2.59,2.59,0,0,1,5.07-.26l0,.08a2.59,2.59,0,0,1,2.47,3.48,2.58,2.58,0,0,1,.86,2.45,2.59,2.59,0,1,1-4.52,1.18,2.57,2.57,0,0,1-.43-.71,2.57,2.57,0,0,1-3.38-1.22l-.05,0a2.58,2.58,0,0,1-1,.06,2.59,2.59,0,0,1-5.14-.56A2.58,2.58,0,0,1,289.93,30.14Z"/><path class="cls-5" d="M292,32.39a81.26,81.26,0,0,0,3.92-2.26,1.8,1.8,0,0,1,.89,0,1.81,1.81,0,0,1,3.54-.18V30A1.81,1.81,0,0,1,302,32.43a1.8,1.8,0,0,1,.6,1.71,1.81,1.81,0,1,1-3.16.82,1.79,1.79,0,0,1-.3-.5l-.28.1a1.81,1.81,0,0,1-2.08-.95h0a1.8,1.8,0,0,1-.7,0,1.81,1.81,0,0,1-3.59-.39A1.8,1.8,0,0,1,292,32.39Z"/><path class="cls-3" d="M293.62,72.38c-.18.53-2.3.77-6.68-.74-4-1.39-6.07-3.1-5.89-3.62s3.22-.11,6.75,1.11S293.8,71.85,293.62,72.38Z"/><path class="cls-6" d="M291,27.08c.33-1,5.16-.47,10.78,1.47s9.88,4.59,9.55,5.54-5.15.16-10.76-1.78S290.64,28,291,27.08Z"/><path class="cls-7" d="M290,34.7h0c.71-2.47,2.57,1.94,8.37,3.57,3.35.94,4.53-2.14,8.15,1.19.38.35.65.61.71.83a.51.51,0,0,1,0,.36s-.14,3.48-3.71,10.76l0,.09c-3.55,7.21-7.21,9.8-10.41,19.63-.15.43-1.49.38-3.31,0h-.06l-.32-.08-1-.27h0l-.51-.16-.33-.11-.21-.07h0c-3-1-5.19-2.34-5-2.95l0,0c3.51-9.68,2.24-14,3.88-21.82a.41.41,0,0,1,0-.12v0C287.9,37.77,289.85,34.88,290,34.7Z"/><circle class="cls-5" cx="297.19" cy="40.95" r="0.23" transform="translate(161.6 308.56) rotate(-70.98)"/><circle class="cls-5" cx="297.85" cy="39.96" r="0.52" transform="translate(162.98 308.52) rotate(-70.98)"/><circle class="cls-5" cx="296.68" cy="41.07" r="0.08" transform="translate(161.15 308.16) rotate(-70.98)"/><circle class="cls-5" cx="297.27" cy="41.66" r="0.08" transform="translate(160.99 309.11) rotate(-70.98)"/><circle class="cls-5" cx="297.68" cy="41.11" r="0.08" transform="translate(161.78 309.13) rotate(-70.98)"/><circle class="cls-5" cx="304.06" cy="45.4" r="0.23" transform="translate(47.23 214.37) rotate(-41.83)"/><circle class="cls-5" cx="304.56" cy="45.54" r="0.08" transform="translate(47.26 214.73) rotate(-41.83)"/><circle class="cls-5" cx="304.33" cy="44.74" r="0.08" transform="matrix(0.75, -0.67, 0.67, 0.75, 47.73, 214.38)"/><circle class="cls-5" cx="303.71" cy="45.02" r="0.08" transform="translate(47.39 214.03) rotate(-41.83)"/><circle class="cls-5" cx="291.82" cy="37.36" r="0.23" transform="translate(238.38 326.67) rotate(-86.83)"/><circle class="cls-5" cx="292.27" cy="37.12" r="0.08" transform="translate(239.06 326.89) rotate(-86.83)"/><circle class="cls-5" cx="291.55" cy="36.71" r="0.08" transform="translate(238.78 325.78) rotate(-86.83)"/><circle class="cls-5" cx="291.3" cy="37.35" r="0.08" transform="translate(237.91 326.15) rotate(-86.83)"/><circle class="cls-5" cx="302.48" cy="40.59" r="0.23" transform="translate(12.78 136.58) rotate(-25.98)"/><circle class="cls-5" cx="302.92" cy="40.86" r="0.08" transform="translate(12.71 136.8) rotate(-25.98)"/><circle class="cls-5" cx="302.92" cy="40.03" r="0.08" transform="translate(13.07 136.72) rotate(-25.98)"/><circle class="cls-5" cx="302.24" cy="40.13" r="0.08" transform="translate(12.96 136.43) rotate(-25.98)"/><circle class="cls-5" cx="289.54" cy="38.69" r="0.23" transform="translate(169.3 304.9) rotate(-73.3)"/><circle class="cls-5" cx="289.88" cy="39.08" r="0.08" transform="translate(169.17 305.51) rotate(-73.3)"/><circle class="cls-5" cx="289.06" cy="39.21" r="0.08" transform="translate(168.45 304.82) rotate(-73.3)"/><circle class="cls-5" cx="289.05" cy="38.52" r="0.08" transform="translate(169.1 304.32) rotate(-73.3)"/><polygon points="283.27 341.73 325.05 338.75 327.72 343.22 269.74 372.11 260.78 357.93 283.27 341.73"/><polygon points="73.55 306.44 48.15 336.45 43.4 335.3 62.03 277.43 77.43 280.71 73.55 306.44"/><path class="cls-5" d="M173.5,84.86c3.75,14.82-4.12,64.3-4.12,64.3s-36.87-65.8-30.11-76.66A6.35,6.35,0,0,1,142.65,70l11,5.85,7.52-.06,4.35,2.53S172.87,82.35,173.5,84.86Z"/><path class="cls-1" d="M162,58l-.82,17.77s-15.84,4.26-19,.73c-1.3-1.43-.68-17.71-.68-17.71Z"/><polygon class="cls-1" points="139.22 59.73 175.13 60.9 163.14 10.19 139.43 11.1 139.22 59.73"/><path class="cls-8" d="M139.08,4.88c5.56-2.85,12.59-6.13,19-4.39,8.78,2.38,10.09,12,16.92,16.5-.45-.29-9.52,2.27-11.17,2.09-4.23-.46-8.53-3-12.51-4.44-11.05-4-3.82,16.24-9.88,21.92a1.81,1.81,0,0,1-.38,1.58c-.19.18-.85,3.31-1.07,3.51-1.84,1.7-4.78.52-5-.61C134.06,36.21,134.61,7.71,139.08,4.88Z"/><polygon class="cls-9" points="162 60.66 161.45 67.48 141.63 64.49 141.46 59.84 162 60.66"/><path class="cls-1" d="M144.33,31.88a4.37,4.37,0,0,0-3.69,3.47,2.34,2.34,0,0,0,2.8,2.72"/><path class="cls-10" d="M142.76,36.92a1.48,1.48,0,0,1-.59-2.47"/><circle class="cls-11" cx="164.15" cy="98.96" r="2" transform="translate(-17.78 38.61) rotate(-12.73)"/><circle class="cls-11" cx="164.68" cy="110.43" r="2" transform="translate(-20.29 39.01) rotate(-12.73)"/><circle class="cls-11" cx="165.22" cy="121.9" r="2" transform="translate(-22.8 39.41) rotate(-12.73)"/><path class="cls-11" d="M149.27,69.64,156.08,74a2.08,2.08,0,0,1,1.6-1.06l1.68,0A2.18,2.18,0,0,1,161.14,74L168,69.12c1-.69,2.05.59,2.1,2.48L170.37,83c.05,1.89-1,3.23-2,2.59l-7.07-4.48a2.18,2.18,0,0,1-1.71,1.24l-1.68,0a2.08,2.08,0,0,1-1.66-1l-6.56,4.69c-1,.69-2.05-.59-2.1-2.48l-.32-11.43C147.25,70.34,148.26,69,149.27,69.64Z"/><path class="cls-1" d="M167.89,31.24s4.08,5,3.7,5.71S168,38,168,38Z"/><path class="cls-8" d="M160.43,24.7a5.69,5.69,0,0,0-7.58,1.87c.06-.11.11-.21.17-.32a5.72,5.72,0,0,1,7.78-2.16Z"/><circle class="cls-1" cx="169.98" cy="46.68" r="2.64" transform="translate(-6.11 38.61) rotate(-12.73)"/><polygon class="cls-1" points="19.27 113.38 25.87 127.2 21.13 141.86 12.04 145.73 3.52 139.08 5.67 135.19 0 130.35 0.65 119.54 19.27 113.38"/></g></g></svg>