<svg xmlns="http://www.w3.org/2000/svg" xmlns:xlink="http://www.w3.org/1999/xlink" viewBox="0 0 610.32 220.46"><defs><style>.cls-1,.cls-2{fill:none;}.cls-10,.cls-2,.cls-7,.cls-8{stroke:#000;stroke-miterlimit:10;}.cls-2{stroke-width:0.3px;}.cls-3{font-size:72px;font-family:Poly-Regular, Poly;}.cls-3,.cls-4{fill:#1d1d1d;}.cls-5{clip-path:url(#clip-path);}.cls-6{clip-path:url(#clip-path-2);}.cls-10,.cls-7,.cls-9{fill:#fff;}.cls-7,.cls-8{stroke-width:0.3px;}.cls-10{stroke-width:0.25px;}</style><clipPath id="clip-path"><rect class="cls-1" x="139.7" y="23.38" width="62.31" height="51.27" transform="translate(219.88 -121.84) rotate(90)"/></clipPath><clipPath id="clip-path-2"><circle class="cls-2" cx="170.2" cy="74.17" r="24.98"/></clipPath></defs><title>Asset 5Splash</title><g id="Layer_2" data-name="Layer 2"><g id="Layer_2-2" data-name="Layer 2"><text class="cls-3" transform="translate(192.13 168.27)">Be My Butler</text><ellipse class="cls-4" cx="170.86" cy="81.81" rx="43.76" ry="2.59"/><g class="cls-5"><g class="cls-6"><path class="cls-7" d="M159.43,93.45c.52,2.09.82,2.91,1.53,3.71a32.87,32.87,0,0,0,6.07.51,27.86,27.86,0,0,0,5.45-.5A18,18,0,0,0,173,93.5c-2.63-1-4.05-1.62-7-2.92C163.19,91.85,161.86,92.43,159.43,93.45Z"/><path class="cls-7" d="M146.32,93.25c1.09,2.15,1.75,3,3.27,3.84a41.92,41.92,0,0,0,7.17.58,18.7,18.7,0,0,0,4.2-.51c-.7-.8-1-1.61-1.53-3.71-2.95-1.07-4.5-1.69-7.59-3Z"/><path class="cls-8" d="M173,93.5a18,18,0,0,1-.52,3.68,23,23,0,0,0,4.82.5,37.7,37.7,0,0,0,6.65-.54c1.14-.82,1.63-1.65,2.46-3.76-2.21-1-3.43-1.59-6.06-2.85C177.3,91.84,175.81,92.45,173,93.5Z"/><path class="cls-8" d="M150.54,82.73a41,41,0,0,0,1.26,7.54c3.1,1.37,4.65,2,7.6,3.07,2.44-1,3.77-1.62,6.58-2.91-.14-2.59-.21-4.1-.27-7.53-3.13-1.73-4.73-2.63-7.87-4.43Z"/><path class="cls-7" d="M165.72,82.9c.06,3.43.12,4.94.27,7.53,3,1.31,4.38,1.9,7,2.95,2.81-1.06,4.31-1.67,7.37-3a60.08,60.08,0,0,0,.79-7.53l-7.63-4.35C170.37,80.3,168.78,81.19,165.72,82.9Z"/><path class="cls-7" d="M181.17,82.84a60.08,60.08,0,0,1-.79,7.53c2.63,1.27,3.86,1.85,6.08,2.88,3-1.11,4.62-1.75,7.69-3.15a35.67,35.67,0,0,0,1.64-7.54c-2.55-1.58-3.94-2.42-6.84-4.16C185.89,80.2,184.31,81.1,181.17,82.84Z"/><path class="cls-7" d="M157.83,69.06c-.09,3.59-.09,5.47,0,9.05,3.14,1.81,4.74,2.71,7.88,4.45,3.07-1.71,4.66-2.61,7.83-4.42,0-3.61,0-5.5,0-9.11-3.17-1.81-4.76-2.71-7.83-4.42C162.57,66.35,161,67.25,157.83,69.06Z"/><path class="cls-8" d="M173.54,69c0,3.61,0,5.5,0,9.11l7.65,4.37c3.14-1.75,4.72-2.65,7.78-4.45a87.66,87.66,0,0,0,0-8.95c-3.06-1.8-4.64-2.7-7.78-4.45Z"/><path class="cls-7" d="M189,69.11a87.66,87.66,0,0,1,0,8.95c2.91,1.75,4.31,2.6,6.87,4.18,3-1.74,4.28-2.64,6.82-4.39a66.14,66.14,0,0,0,0-8.54c-2.54-1.75-3.83-2.65-6.82-4.39C193.28,66.52,191.88,67.37,189,69.11Z"/><path class="cls-8" d="M151.8,56.91a41,41,0,0,0-1.26,7.54l7.31,4.27c3.14-1.81,4.74-2.71,7.87-4.43.06-3.43.12-4.94.27-7.53-2.81-1.28-4.15-1.87-6.58-2.91C156.45,54.92,154.89,55.54,151.8,56.91Z"/><path class="cls-7" d="M166,56.74c-.14,2.59-.21,4.1-.27,7.53,3.07,1.71,4.66,2.6,7.82,4.41l7.63-4.35a60.08,60.08,0,0,0-.79-7.53c-3.06-1.33-4.56-1.94-7.37-3C170.37,54.84,168.94,55.44,166,56.74Z"/><path class="cls-7" d="M180.38,56.8a60.08,60.08,0,0,1,.79,7.53c3.14,1.74,4.72,2.64,7.79,4.44,2.9-1.74,4.29-2.59,6.84-4.16a35.66,35.66,0,0,0-1.64-7.54c-3.07-1.4-4.65-2-7.69-3.15C184.24,54.95,183,55.53,180.38,56.8Z"/><path class="cls-7" d="M149.59,50.08c-1.52.85-2.17,1.69-3.27,3.84l5.51,2.84c3.1-1.36,4.65-2,7.59-3,.52-2.09.82-2.91,1.53-3.71a18.7,18.7,0,0,0-4.2-.51A41.92,41.92,0,0,0,149.59,50.08Z"/><path class="cls-7" d="M143,69.19A60.49,60.49,0,0,0,143,78c2.93,1.78,4.46,2.68,7.55,4.42l7.33-4.29c-.09-3.59-.09-5.47,0-9.05l-7.33-4.29C147.42,66.52,145.88,67.42,143,69.19Z"/><path class="cls-7" d="M136.92,82.33a21.68,21.68,0,0,0,2,7.3,56,56,0,0,0,7.3,3.5l5.54-2.86a41,41,0,0,1-1.26-7.54c-3.09-1.74-4.63-2.64-7.56-4.41C140.27,80,139.2,80.82,136.92,82.33Z"/><path class="cls-7" d="M139,57.55a21.68,21.68,0,0,0-2,7.3c2.29,1.51,3.36,2.31,6.06,4,2.93-1.78,4.47-2.67,7.56-4.41a41,41,0,0,1,1.26-7.54L146.26,54A56,56,0,0,0,139,57.55Z"/><path class="cls-7" d="M161,50c-.7.8-1,1.61-1.53,3.71,2.43,1,3.76,1.6,6.56,2.88,3-1.3,4.38-1.89,7-2.92a18,18,0,0,0-.52-3.68,27.86,27.86,0,0,0-5.45-.5A32.88,32.88,0,0,0,161,50Z"/><path class="cls-7" d="M125.65,90.89a25.31,25.31,0,0,0,3.61,4.84,33.52,33.52,0,0,0,7.06,1.87c1.12-.47,1.64-.68,2.81-1.16a13.5,13.5,0,0,1-4-4.29,74.72,74.72,0,0,1-6.75-3.51C127.17,89.63,126.66,90.06,125.65,90.89Z"/><path class="cls-7" d="M135.12,92.14a13.53,13.53,0,0,0,4,4.3,32.87,32.87,0,0,0,7.39,1.21,18.51,18.51,0,0,0,3.08-.56c-1.52-.86-2.17-1.7-3.26-3.85a55.22,55.22,0,0,1-7.3-3.48Z"/><path class="cls-7" d="M118.49,89.46c.65,2.29,1,3.4,1.7,5.51a24.22,24.22,0,0,0,6,2.58l3.1-1.82a25.31,25.31,0,0,1-3.61-4.84,32.08,32.08,0,0,1-5.23-3.59C119.66,88.21,119.32,88.62,118.49,89.46Z"/><path class="cls-8" d="M118.59,80.81c.13,2.74.75,4,1.78,6.36a32,32,0,0,0,5.21,3.6c1-.84,1.52-1.27,2.74-2.26-1.34-2.46-2.1-3.8-2.35-6.83a44.62,44.62,0,0,1-4.38-4.07A37.57,37.57,0,0,0,118.59,80.81Z"/><path class="cls-7" d="M126,81.68c.26,3,1,4.37,2.35,6.83A75.67,75.67,0,0,0,135.05,92l3.91-2.4a21.68,21.68,0,0,1-2-7.3c-2.67-1.72-3.9-2.6-6.16-4.31C128.66,79.58,127.7,80.32,126,81.68Z"/><path class="cls-8" d="M130.75,69.31a73.76,73.76,0,0,0,0,8.23c2.25,1.7,3.48,2.58,6.13,4.31,2.29-1.53,3.36-2.33,6.08-4A60.45,60.45,0,0,1,143,69c-2.71-1.7-3.78-2.5-6.07-4C134.24,66.73,133,67.61,130.75,69.31Z"/><path class="cls-7" d="M121.56,69.86c-.09,3-.09,4.49,0,7.46a45.13,45.13,0,0,0,4.37,4.07c1.74-1.37,2.71-2.11,4.81-3.68a73.71,73.71,0,0,1,0-8.23c-2.1-1.57-3.06-2.31-4.81-3.68A45.13,45.13,0,0,0,121.56,69.86Z"/><path class="cls-8" d="M120.36,60c-1,2.39-1.65,3.62-1.78,6.36a37.61,37.61,0,0,0,3,3.2A44.62,44.62,0,0,1,126,65.5c.26-3,1-4.37,2.35-6.83-1.22-1-1.73-1.42-2.74-2.26A32,32,0,0,0,120.36,60Z"/><path class="cls-7" d="M128.31,58.67c-1.34,2.46-2.1,3.8-2.35,6.83,1.74,1.36,2.7,2.1,4.8,3.66,2.26-1.7,3.49-2.58,6.16-4.31a21.68,21.68,0,0,1,2-7.3l-3.91-2.4A75.65,75.65,0,0,0,128.31,58.67Z"/><path class="cls-7" d="M120.19,52.21c-.71,2.1-1.05,3.21-1.7,5.51.83.84,1.17,1.26,1.93,2.16a32.06,32.06,0,0,1,5.23-3.59,25.31,25.31,0,0,1,3.61-4.84l-3.1-1.82A24.22,24.22,0,0,0,120.19,52.21Z"/><path class="cls-7" d="M116.53,70.35c0,2.59,0,3.89,0,6.48a14.33,14.33,0,0,0,2,3.72,37.13,37.13,0,0,1,3-3.23c-.09-3-.09-4.49,0-7.46a37.16,37.16,0,0,1-3-3.23A14.34,14.34,0,0,0,116.53,70.35Z"/><path class="cls-7" d="M115.91,79.72c0,2.36,0,3.54,0,5.89a8,8,0,0,0,2.51,3.72c.82-.85,1.16-1.26,1.91-2.16-1-2.39-1.65-3.62-1.78-6.36a14.33,14.33,0,0,1-2.06-3.73A5.57,5.57,0,0,0,115.91,79.72Z"/><path class="cls-7" d="M115.94,61.56c0,2.36,0,3.53,0,5.89a5.57,5.57,0,0,0,.62,2.64,14.33,14.33,0,0,1,2.06-3.73c.13-2.74.75-4,1.78-6.36-.75-.9-1.09-1.32-1.91-2.16A8,8,0,0,0,115.94,61.56Z"/><path class="cls-7" d="M129.26,51.44a25.31,25.31,0,0,0-3.61,4.84c1,.83,1.52,1.26,2.74,2.24A74.79,74.79,0,0,1,135.13,55a13.5,13.5,0,0,1,4-4.29c-1.16-.48-1.69-.68-2.81-1.16A33.52,33.52,0,0,0,129.26,51.44Z"/><path class="cls-8" d="M139.13,50.73a13.5,13.5,0,0,0-4,4.29L139,57.4a55.08,55.08,0,0,1,7.3-3.48c1.09-2.15,1.75-3,3.27-3.84a18.5,18.5,0,0,0-3.07-.55A32.81,32.81,0,0,0,139.13,50.73Z"/><path class="cls-8" d="M172.48,50a18,18,0,0,1,.52,3.68c2.81,1,4.31,1.65,7.36,3,2.62-1.26,3.85-1.84,6.06-2.85-.83-2.12-1.32-2.94-2.46-3.76a37.71,37.71,0,0,0-6.65-.54A23,23,0,0,0,172.48,50Z"/><path class="cls-7" d="M198.64,92.72a10,10,0,0,1-3.75,4.05c1.25.39,1.8.53,2.88.85a34.25,34.25,0,0,0,7.31-1.53,18.16,18.16,0,0,0,4-4.55c-1.17-.83-1.79-1.28-3.28-2.31C203,90.71,201.54,91.43,198.64,92.72Z"/><path class="cls-7" d="M186.41,93.37c-.83,2.12-1.32,2.94-2.46,3.76a15,15,0,0,0,3.62.53,29.62,29.62,0,0,0,7.33-.89,10,10,0,0,0,3.75-4.05c-1.58-.85-2.34-1.23-4.54-2.47C191,91.64,189.46,92.28,186.41,93.37Z"/><path class="cls-8" d="M209.05,91.54a18.16,18.16,0,0,1-4,4.55c1.12.57,1.65.84,2.87,1.48a30.11,30.11,0,0,0,6.62-2.22,40.16,40.16,0,0,0,2.87-5.16c-.89-.84-1.31-1.26-2.28-2.2A52.15,52.15,0,0,1,209.05,91.54Z"/><path class="cls-8" d="M195.8,82.57a35.67,35.67,0,0,1-1.64,7.54c2.2,1.25,3,1.64,4.56,2.5,2.9-1.3,4.35-2,7.13-3.51A16.74,16.74,0,0,0,208.13,82c-2-1.44-3.14-2.22-5.5-3.85C200.09,79.93,198.79,80.84,195.8,82.57Z"/><path class="cls-7" d="M208.13,82a16.74,16.74,0,0,1-2.29,7.07c1.49,1,2.12,1.49,3.29,2.32a52.43,52.43,0,0,0,6.11-3.55c1.25-2.42,2-3.7,2.19-6.6-1.39-1.27-2.18-2-4-3.44A65.9,65.9,0,0,1,208.13,82Z"/><path class="cls-7" d="M217.44,81.27c-.19,2.89-.94,4.18-2.19,6.6,1,.94,1.38,1.37,2.27,2.2a16.94,16.94,0,0,0,4-3.65,22.44,22.44,0,0,0,1.07-6.13,14.53,14.53,0,0,0-1.87-2.94A26.69,26.69,0,0,1,217.44,81.27Z"/><path class="cls-7" d="M202.66,69.32a66.14,66.14,0,0,1,0,8.54c2.36,1.64,3.46,2.42,5.51,3.87a67.05,67.05,0,0,0,5.32-4.2c.12-3.13.12-4.74,0-7.87a67,67,0,0,0-5.32-4.2C206.12,66.9,205,67.68,202.66,69.32Z"/><path class="cls-7" d="M213.49,69.65c.12,3.13.12,4.74,0,7.87,1.78,1.49,2.58,2.18,4,3.47a26.9,26.9,0,0,0,3.28-3.91c.06-2.79.06-4.21,0-7a26.9,26.9,0,0,0-3.28-3.91C216.07,67.47,215.27,68.16,213.49,69.65Z"/><path class="cls-8" d="M220.73,70.09c.06,2.79.06,4.21,0,7a14.5,14.5,0,0,1,1.87,3,7.69,7.69,0,0,0,.68-3.5c0-2.36,0-3.54,0-5.91a7.68,7.68,0,0,0-.68-3.5A14.51,14.51,0,0,1,220.73,70.09Z"/><path class="cls-8" d="M194.15,57.07a35.66,35.66,0,0,1,1.64,7.54c3,1.73,4.29,2.63,6.84,4.38,2.35-1.63,3.45-2.4,5.5-3.85a16.74,16.74,0,0,0-2.29-7.07c-2.78-1.48-4.23-2.21-7.13-3.51C197.12,55.43,196.35,55.82,194.15,57.07Z"/><path class="cls-7" d="M205.84,58.08a16.74,16.74,0,0,1,2.29,7.07,65.89,65.89,0,0,1,5.34,4.2c1.78-1.48,2.57-2.17,4-3.44-.19-2.89-.94-4.18-2.19-6.6a52.42,52.42,0,0,0-6.11-3.55C208,56.59,207.34,57,205.84,58.08Z"/><path class="cls-7" d="M215.24,59.31c1.25,2.42,2,3.7,2.19,6.6a26.71,26.71,0,0,1,3.29,3.92,14.53,14.53,0,0,0,1.87-2.94,22.45,22.45,0,0,0-1.07-6.13,16.93,16.93,0,0,0-4-3.65C216.63,57.94,216.21,58.37,215.24,59.31Z"/><path class="cls-7" d="M184,50c1.14.82,1.63,1.65,2.46,3.76,3,1.1,4.62,1.73,7.69,3.12,2.19-1.24,3-1.62,4.54-2.47a10,10,0,0,0-3.75-4.05,29.62,29.62,0,0,0-7.33-.89A15,15,0,0,0,184,50Z"/><path class="cls-7" d="M194.9,50.4a10,10,0,0,1,3.75,4.05c2.9,1.29,4.35,2,7.13,3.49,1.49-1,2.11-1.47,3.28-2.31a18.15,18.15,0,0,0-4-4.55,34.25,34.25,0,0,0-7.31-1.53C196.69,49.87,196.15,50,194.9,50.4Z"/><path class="cls-8" d="M205.09,51.08a18.15,18.15,0,0,1,4,4.55,52.19,52.19,0,0,1,6.12,3.54c1-.94,1.38-1.36,2.28-2.2a40.11,40.11,0,0,0-2.87-5.16A30.12,30.12,0,0,0,208,49.6C206.74,50.24,206.21,50.51,205.09,51.08Z"/></g><circle class="cls-2" cx="170.2" cy="74.17" r="24.98"/></g><polygon class="cls-4" points="91.96 62.65 54.54 62.65 58.54 10.87 90.96 10.87 91.96 62.65"/><path class="cls-4" d="M88.5,4.58c-6-2.81-13.66-6-20.41-3.9-9.25,2.89-10.25,13.2-17.34,18.26.46-.33,10.22,2,12,1.77,4.48-.66,9-3.55,13.14-5.24C89.27,10,85.24,14.38,88.5,26.33c0,.06,4.73-7.45,5-9.29C94.32,11.86,93.37,7.42,88.5,4.58Z"/><path class="cls-4" d="M52.91,75,29.59,82.59S-6.77,158,1.12,169.7c0,0,0,5.49,38.07,11,0,0,3.09-14.06-1.37-25.38,0,0-11.75-3.09-11.36-5.49s6.9-16.46,6.9-16.46l1.71,18.18,6.17,68.94L67.31,207.8l26.07,12.66,12.69-104.6s22.29,46.3,25.72,45.61,38.07-56.25,38.07-56.25l-25-6.17s-7.55,21.61-9.26,19.89-16.12-38.75-16.12-38.75L98.52,77.1l-27.78,60.7Z"/><path class="cls-4" d="M180,85.88H152.24s-3.1.67-2.85,11.14l14.48,3.6S163.79,91.49,180,85.88Z"/><path class="cls-9" d="M45.48,156.79s6.47,20.05,3.5,50.08h34V166S60.33,156.26,45.48,156.79Z"/><polygon class="cls-10" points="98.74 77.09 84.37 70.22 73.47 77.97 64.4 70.22 53.13 75.04 70.96 137.8 98.74 77.09"/><path class="cls-4" d="M86.05,71.94l-9.16,3.43a3.61,3.61,0,0,0-2.24-.78h-2.3A3.61,3.61,0,0,0,70,75.5l-9.51-3.56a2.06,2.06,0,0,0-2.79,1.93v8.71a2.06,2.06,0,0,0,2.79,1.93L70,80.95a3.61,3.61,0,0,0,2.39.91h2.3a3.61,3.61,0,0,0,2.24-.78l9.16,3.43a2.06,2.06,0,0,0,2.79-1.93V73.87A2.06,2.06,0,0,0,86.05,71.94Z"/><circle class="cls-4" cx="73.25" cy="91.67" r="2.15"/><circle class="cls-4" cx="73.25" cy="103.29" r="2.15"/><circle class="cls-4" cx="73.25" cy="114.91" r="2.15"/></g></g></svg>