<svg xmlns="http://www.w3.org/2000/svg" viewBox="0 0 115.93 184.88"><defs><style>.cls-1{fill:#e8b646;}.cls-2{fill:#e32213;}.cls-3{fill:#ffe500;}.cls-4{font-size:22.46px;font-family:MyriadPro-Regular, Myriad Pro;}.cls-5{letter-spacing:-0.02em;}.cls-6{letter-spacing:-0.01em;}.cls-7{letter-spacing:-0.01em;}.cls-8{letter-spacing:-0.01em;}.cls-9{letter-spacing:0em;}</style></defs><title>Asset 6Splash</title><g id="Layer_2" data-name="Layer 2"><g id="Layer_2-2" data-name="Layer 2"><path class="cls-1" d="M32.58,84.54v34.69a10,10,0,0,0,2.48,7c1.34,1.34,22.94,16.26,23.2,16.44.27-.18,21.86-15.1,23.2-16.44a10,10,0,0,0,2.48-7V84.54Z"/><path class="cls-2" d="M82,95.27v-8.8H34.51v8.8Z"/><path class="cls-3" d="M34.51,97v22.27a8.09,8.09,0,0,0,1.91,5.62c.38.35,2.2,1.69,4.88,3.6V97Z"/><path class="cls-2" d="M41.29,97v31.48c1.9,1.35,4.22,3,6.79,4.79V97Z"/><path class="cls-3" d="M48.08,97v36.27L54.87,138V97Z"/><path class="cls-2" d="M54.87,97v41l3.39,2.35L61.65,138V97Z"/><path class="cls-3" d="M61.65,97v41l6.79-4.73V97Z"/><path class="cls-2" d="M68.44,97v36.27c2.55-1.79,4.88-3.43,6.79-4.79V97Z"/><path class="cls-3" d="M75.22,97v31.48c2.66-1.9,4.49-3.24,4.88-3.6A8.09,8.09,0,0,0,82,119.24V97Z"/><path class="cls-1" d="M46,94.61H44l-2-2.92-.43.4v2.51H39.93v-7.4h1.64V90.1l3-3,1,1-2.48,2.47Z"/><polygon class="cls-1" points="58.85 87.31 57.04 91.74 55.17 87.31 53.41 87.31 56.63 94.66 57.35 94.66 60.58 87.31 58.85 87.31"/><path class="cls-1" d="M76.59,94.61H74.92l-.81-4.14-1.5,4.06h-.76l-1.36-3.91-.82,4H68.07l1.65-7.4h.64l2,4.37,1.94-4.37h.68Z"/><path class="cls-1" d="M49,104.25v12a4.3,4.3,0,0,0,2.21,3.4l7.06,4.76,7.06-4.76a4.3,4.3,0,0,0,2.21-3.4v-12Z"/><path d="M66.58,109.91a2.15,2.15,0,0,1-2-.56,2.81,2.81,0,0,0,1.79-.72.73.73,0,0,0,.15-.44.86.86,0,0,0,0-.21l0-.12-.11.06a1.87,1.87,0,0,1-1.64.05,3.26,3.26,0,0,0,1.2-.9,2,2,0,0,0,.39-1.1.92.92,0,0,0-.27-.69l-.07-.07-.07.09c-.09.1-1.32.89-1.44.94a4.25,4.25,0,0,1-1.77.42h-.27c-.36,0-.85,0-1,.32a2.39,2.39,0,0,0-.06,1.43,2.45,2.45,0,0,1,0,1.4c-.15.34-.55,1.25-1,1.24s-.75-1.32-.76-1.88a5.68,5.68,0,0,1,.13-1.09,4.43,4.43,0,0,0,.11-1.42,1.27,1.27,0,0,0-1.46-1.12l-.72.08-.25,0-.5.11a.3.3,0,0,0-.2.26l-.92-.16a.47.47,0,0,0-.39.07,1.26,1.26,0,0,0-.36.76l.19,0a1,1,0,0,1,.48-.19l.74,0,.18.18a4.54,4.54,0,0,1-.63,0c-.17,0-.4,0-.45.15s.12.32.14.33a3.22,3.22,0,0,0,1,.1,1.26,1.26,0,0,0,.3.85l0,0a2.19,2.19,0,0,1,.76,1.44v0a2.71,2.71,0,0,1-1,2.15,2.12,2.12,0,0,1,0-.34c0-.08,0-.15,0-.23v-.47h-.1a1.2,1.2,0,0,1-.93-.3,2.83,2.83,0,0,1-.5-2l0-.47a2.24,2.24,0,0,0,0-1.1c-.17-.37-.67-.34-1-.32h-.27a4.25,4.25,0,0,1-1.77-.42c-.12-.06-1.35-.84-1.44-.94l-.07-.07-.08.06a.93.93,0,0,0-.27.69,2,2,0,0,0,.4,1.1,3.34,3.34,0,0,0,1.2.9,1.87,1.87,0,0,1-1.64,0l-.11-.06,0,.12a.87.87,0,0,0,0,.21.73.73,0,0,0,.15.44,2.81,2.81,0,0,0,1.79.72,2.15,2.15,0,0,1-2,.56l-.15-.09V110a1,1,0,0,0,.42.8,3.12,3.12,0,0,0,2,.38l-.13.09a2,2,0,0,1-.5.31,2.26,2.26,0,0,1-1.26.06l-.25-.06.15.21a2.87,2.87,0,0,0,3,1.22,3.77,3.77,0,0,1-2.17.92h-.28l.25.2.19.16.28.22a2.24,2.24,0,0,0,.92.17,3.9,3.9,0,0,0,1.42-.24,3.47,3.47,0,0,1-.88.92l-.12.08.11.08a1.53,1.53,0,0,0,1.22.16,4.8,4.8,0,0,0,2.52-1.6.48.48,0,0,1,0,.1,1,1,0,0,1-.08.35,5.23,5.23,0,0,1-2.4,2.21,1.77,1.77,0,0,1-.54,0l-.5-.05c-.67,0-1.34.13-1.53,1l0,.17.27-.1a1.7,1.7,0,0,1,1.53-.09c0,.25-1.55,1.34-1.81,1.4l-.27.06.25.12a1.93,1.93,0,0,0,1.7-.25,1.49,1.49,0,0,0-.19.67,1.31,1.31,0,0,0,0,.27,1.06,1.06,0,0,0,.66.78l.07-.18a.08.08,0,0,1,0-.06.32.32,0,0,1,0-.1,5.87,5.87,0,0,1,3.63-4.16,4.84,4.84,0,0,1-.46,1.31,2.14,2.14,0,0,1-.73.72l-.52.41a1.18,1.18,0,0,0-.37.82.81.81,0,0,0,0,.16.81.81,0,0,0,1.38.38,1.2,1.2,0,0,1,.38-.23.37.37,0,0,1,.33,0,.58.58,0,0,1,.23.43c0,.32-.16.52-.39.75a1.34,1.34,0,0,0-.5,1,1.27,1.27,0,0,0,.49.92,1.11,1.11,0,0,0,.9.24,1.06,1.06,0,0,0,.86-.24,1.27,1.27,0,0,0,.49-.92,1,1,0,0,0-.44-.91,1.07,1.07,0,0,1-.4-.55.77.77,0,0,1,.13-.71.35.35,0,0,1,.37-.06,1.2,1.2,0,0,1,.38.23.81.81,0,0,0,1.38-.38.81.81,0,0,0,0-.16,1.18,1.18,0,0,0-.37-.82l-.52-.41a2.14,2.14,0,0,1-.73-.72,4.82,4.82,0,0,1-.46-1.31,5.87,5.87,0,0,1,3.63,4.16.31.31,0,0,1,0,.1.08.08,0,0,1,0,.06l.07.18a1.06,1.06,0,0,0,.66-.78,1.33,1.33,0,0,0,0-.27,1.49,1.49,0,0,0-.19-.67,1.93,1.93,0,0,0,1.7.25l.25-.12-.27-.06c-.26-.06-1.8-1.15-1.81-1.4a1.7,1.7,0,0,1,1.53.09l.27.1,0-.17c-.19-.83-.86-.93-1.53-1l-.5.05a1.78,1.78,0,0,1-.54,0,5.23,5.23,0,0,1-2.4-2.21,1,1,0,0,1-.08-.35.49.49,0,0,1,0-.1,4.79,4.79,0,0,0,2.52,1.6,1.53,1.53,0,0,0,1.22-.16l.12-.08-.12-.08a3.47,3.47,0,0,1-.88-.92,3.9,3.9,0,0,0,1.42.24,2.23,2.23,0,0,0,.92-.17l.28-.22.41-.34h-.25a3.77,3.77,0,0,1-2.17-.92,2.87,2.87,0,0,0,3-1.22l.15-.21-.25.06a2.26,2.26,0,0,1-1.26-.06,2.06,2.06,0,0,1-.5-.31l-.13-.09a3.12,3.12,0,0,0,2-.38,1,1,0,0,0,.42-.8v-.18Z"/><path class="cls-1" d="M109.23,123.76a23.14,23.14,0,0,0-9.39,5.54,44,44,0,0,0,2.1-5.81c7.93-4.1,7.17-13,7.17-13a42.41,42.41,0,0,0-5.86,6.08,37.87,37.87,0,0,0,.15-5.3c7.07-5.57,3.44-14.16,3.44-14.16-2.44,1.48-3.87,5.36-4.41,7.09a42,42,0,0,0-2-6.22c1.24-1.15,5.48-6.11-.31-15.84,0,0-2.89,5-3.16,8.9a60.77,60.77,0,0,0-4.46-6.41S93,77,82.63,75.39c0,0-.23,9,8.79,9.24A62.43,62.43,0,0,1,97,93.7c-3.42-3.15-9.22-4.07-9.22-4.07,4,8.73,10.07,9.65,11.64,9.74a43.71,43.71,0,0,1,1.9,7.22c-1.73-1.62-6.68-5.92-10.82-6.19,0,0,1.21,10.17,11.36,11.07a39.15,39.15,0,0,1-.33,7.28,16.77,16.77,0,0,0-9.21-8.94s-1.45,10.39,8.3,13.54a43.83,43.83,0,0,1-3.12,8.33,13.49,13.49,0,0,0-5.85-11s-2.33,9.9,4.13,14.17a51.86,51.86,0,0,1-5.25,7.33c.31-2.37.88-9.13-2.28-11.63,0,0-4.67,7.91-.34,14.46-.62.61-1.09,1-1.38,1.3-2.51.62-5,1.51-7.64,2.44-5.79,2.06-12.36,4.39-20.64,4.39s-14.84-2.33-20.64-4.39c-2.61-.93-5.13-1.82-7.64-2.44-.29-.25-.76-.69-1.38-1.3,4.34-6.55-.34-14.46-.34-14.46-3.16,2.51-2.59,9.26-2.28,11.63a51.84,51.84,0,0,1-5.25-7.33c6.46-4.26,4.13-14.17,4.13-14.17a13.5,13.5,0,0,0-5.85,11,43.83,43.83,0,0,1-3.12-8.33c9.74-3.15,8.3-13.54,8.3-13.54A16.77,16.77,0,0,0,15,118.75a39.12,39.12,0,0,1-.33-7.28C24.79,110.57,26,100.4,26,100.4c-4.14.28-9.09,4.57-10.82,6.19a43.7,43.7,0,0,1,1.9-7.22c1.56-.09,7.62-1,11.64-9.74,0,0-5.79.93-9.22,4.07a62.44,62.44,0,0,1,5.6-9.07c9-.23,8.79-9.24,8.79-9.24C23.53,77,24,84.63,24,84.63A60.76,60.76,0,0,0,19.52,91c-.28-3.89-3.16-8.9-3.16-8.9C10.57,91.87,14.81,96.82,16,98a42,42,0,0,0-2,6.22c-.54-1.73-2-5.61-4.41-7.09,0,0-3.63,8.59,3.44,14.16a37.77,37.77,0,0,0,.15,5.3,42.42,42.42,0,0,0-5.86-6.08s-.75,8.89,7.17,13a44,44,0,0,0,2.1,5.81,23.14,23.14,0,0,0-9.39-5.54s.56,10,12.48,11.41c1,1.66,2.06,3.16,3.07,4.48-1.62-.6-6.55-2.27-10.56-2.17,0,0,3.38,6.86,14.41,6.7.76.8,1.38,1.4,1.82,1.81a23.49,23.49,0,0,0-4.6-.49c-3.31,0-9.06.36-10.44,2.77-1,1.68.67,8.75,1.21,11.08a8.63,8.63,0,0,0,1.06,2.78c4.76,3.45,13-.93,13-1L29.85,160a124.15,124.15,0,0,0,14.33,4.21c-3.18.26-9.33,1.17-12.28,4.49,0,0,8.2,4.59,16.55-3.62l1.75.29,5.34,5.54s-10.55-1.7-15,2.55c0,0,4.42,3.06,12.08,1.7l-9.35,7.31.68,2.38L58.26,173l14.29,11.9.68-2.38-9.35-7.31c7.65,1.36,12.08-1.7,12.08-1.7-4.42-4.25-15-2.55-15-2.55l5.34-5.54,1.75-.29c8.35,8.22,16.56,3.62,16.56,3.62-3-3.32-9.1-4.24-12.28-4.49A124.14,124.14,0,0,0,86.67,160l1.08,1.12c.07.06,8.28,4.44,13,1,.54-.48,1.06-2.78,1.06-2.78.54-2.32,2.17-9.4,1.21-11.08-1.38-2.41-7.13-2.77-10.44-2.77A23.49,23.49,0,0,0,88,146c.43-.41,1.06-1,1.82-1.81,11,.16,14.41-6.7,14.41-6.7-4-.09-8.94,1.58-10.56,2.17,1-1.33,2.06-2.83,3.07-4.48C108.67,133.77,109.23,123.76,109.23,123.76Z"/><path class="cls-1" d="M80.78,66.13a1.53,1.53,0,0,0-1,.4,5.76,5.76,0,0,0,.15-1.31A1.55,1.55,0,1,0,79.76,64q0-.17-.09-.34h0a6.79,6.79,0,0,0-.43-1.07,1.54,1.54,0,1,0-.77-1.33c0,.05,0,.11,0,.16a6.51,6.51,0,0,0-1.07-1h.05a1.55,1.55,0,1,0-1.55-1.55,1.53,1.53,0,0,0,.2.74A9,9,0,0,0,74.81,59a1.55,1.55,0,1,0-2.33-.45c-.33,0-.61,0-.84,0h-.23a4.46,4.46,0,0,0-.59-.52,1.55,1.55,0,1,0-1.8-.93c-.33-.12-.66-.22-1-.3a1.55,1.55,0,1,0-2-.35c-.5-.06-1-.09-1.47-.11a1.55,1.55,0,1,0-1.21,0c-.54,0-1,0-1.44,0h-.15L61.45,56l-.1-.13a3.18,3.18,0,0,0-1.51-3.48l-.06-.29A15,15,0,0,1,59.55,50a9.52,9.52,0,0,1,1.44.24l.59.14V46.69L61,46.8a11.49,11.49,0,0,1-1.48.17,16.86,16.86,0,0,1,.22-1.88l.1-.56H56.67l.1.56A17,17,0,0,1,57,47a11.47,11.47,0,0,1-1.48-.17l-.58-.12v3.66l.59-.14A9.51,9.51,0,0,1,57,50a15,15,0,0,1-.23,2.14l-.06.29a3.18,3.18,0,0,0-1.51,3.48l-.1.13-.28.36h-.15c-.41,0-.9,0-1.44,0a1.55,1.55,0,1,0-1.21,0c-.48,0-1,.05-1.47.11a1.53,1.53,0,0,0,.35-1,1.55,1.55,0,1,0-2.35,1.31c-.35.09-.68.19-1,.3a1.55,1.55,0,1,0-1.8.93,4.5,4.5,0,0,0-.59.52h-.23c-.23,0-.51,0-.84,0a1.53,1.53,0,0,0,.19-.73A1.55,1.55,0,1,0,41.71,59a9,9,0,0,0-1.31.51,1.53,1.53,0,0,0,.2-.74,1.55,1.55,0,1,0-1.55,1.55h.05a6.51,6.51,0,0,0-1.07,1c0-.05,0-.1,0-.16a1.56,1.56,0,1,0-.77,1.33,6.79,6.79,0,0,0-.43,1.07h0c0,.11-.06.23-.09.34a1.55,1.55,0,1,0-.15,1.24,5.72,5.72,0,0,0,.15,1.31,1.53,1.53,0,0,0-1-.4,1.55,1.55,0,1,0,1.52,1.8,8.37,8.37,0,0,0,.58,1A1.54,1.54,0,0,0,37.9,72a1.52,1.52,0,0,0,.52-.1c-.36.68-.38,1.22,0,1.59a1.25,1.25,0,0,0,1.25.31l.06,0,0,1,1,1.54.75.57a4.63,4.63,0,0,0,.65.41h0a1.54,1.54,0,0,0-.46,1,1.16,1.16,0,0,0,0,.26,1.82,1.82,0,0,0,1.09,1.12l.24.1C44.5,82,54.59,82.74,58.26,82.74S72,82,73.5,79.86l.25-.1a1.82,1.82,0,0,0,1.09-1.12,1.19,1.19,0,0,0,0-.26,1.54,1.54,0,0,0-.46-1h0a4.64,4.64,0,0,0,.65-.41l.75-.57,1-1.54,0-1,.06,0a1.25,1.25,0,0,0,1.25-.31c.33-.37.31-.91,0-1.59a1.52,1.52,0,0,0,.52.1,1.54,1.54,0,0,0,.07-3.09,8.41,8.41,0,0,0,.58-1,1.54,1.54,0,1,0,1.52-1.8Z"/><path class="cls-2" d="M53.89,68a10.51,10.51,0,0,1-1.44-5.49A9.3,9.3,0,0,1,53.6,58.1c-1.94.08-6.58.61-7.42,3.71-.74,2.72.49,5.35,1.47,6.87C49.67,68.37,51.78,68.12,53.89,68Z"/><path class="cls-2" d="M49,72.23l2.26,1-1.88,1.58-2.26-1Z"/><circle class="cls-2" cx="58.26" cy="72.01" r="1.6"/><circle class="cls-2" cx="40.71" cy="75.74" r="1.6"/><path class="cls-2" d="M44.44,68.41a1.7,1.7,0,1,1-1.31-2.77h0c-.06-.19-.11-.37-.16-.55a1.7,1.7,0,1,1-.45-2.91c0-.34,0-.66,0-.93v0c-1.39.17-4.14.83-4.33,3.44a7,7,0,0,0,2.37,6.17,30.24,30.24,0,0,1,4.4-1.66C44.76,68.92,44.59,68.67,44.44,68.41Z"/><path class="cls-2" d="M58.26,76.86c-8,0-14.49,1.73-14.49,2.46s6.49,2.46,14.49,2.46S72.75,80,72.75,79.32,66.26,76.86,58.26,76.86Z"/><path class="cls-2" d="M60.22,57a2.73,2.73,0,0,1-3.93,0,10.22,10.22,0,0,0-1.78,5.5,17.33,17.33,0,0,0,1.07,5.37c.9,0,1.79-.07,2.66,0s1.76,0,2.66,0A17.33,17.33,0,0,0,62,62.47,10.23,10.23,0,0,0,60.22,57Z"/><path class="cls-2" d="M62.63,68a10.51,10.51,0,0,0,1.44-5.49,9.3,9.3,0,0,0-1.15-4.37c1.94.08,6.58.61,7.42,3.71.74,2.72-.49,5.35-1.47,6.87C66.85,68.37,64.74,68.12,62.63,68Z"/><path class="cls-2" d="M67.52,72.23l-2.26,1,1.88,1.58,2.26-1Z"/><circle class="cls-2" cx="75.81" cy="75.74" r="1.6"/><path class="cls-2" d="M72.08,68.41a1.7,1.7,0,1,0,1.32-2.77h0c.06-.19.12-.37.16-.55A1.7,1.7,0,1,0,74,62.19c0-.34,0-.66,0-.93v0c1.39.17,4.14.83,4.33,3.44A7,7,0,0,1,76,70.83a30.23,30.23,0,0,0-4.4-1.66C71.76,68.92,71.92,68.67,72.08,68.41Z"/><circle class="cls-1" cx="58.26" cy="59.91" r="1.49"/><circle class="cls-1" cx="58.26" cy="62.73" r="1.49"/><circle class="cls-1" cx="58.26" cy="65.55" r="1.49"/><path class="cls-1" d="M64,147.28c-.22-2.29-1.65-3.83-3.38-3.66h0c-1.73.17-2.83,2-2.6,4.24s1.65,3.83,3.38,3.66S64.2,149.57,64,147.28Zm-2.79,2.32c-.59.06-1.16-.8-1.27-1.93s.28-2.08.87-2.14,1.16.8,1.27,1.93S61.77,149.54,61.18,149.6Z"/><path class="cls-1" d="M53.5,143a3,3,0,0,0-3,3A2.83,2.83,0,0,0,53,149a4.59,4.59,0,0,1-2.44,1.66l2.27.55C55,149.91,56.5,148,56.51,146A3,3,0,0,0,53.5,143Zm0,4.08A1.08,1.08,0,1,1,54.58,146,1.08,1.08,0,0,1,53.5,147.12Z"/><polygon class="cls-1" points="47.26 141.5 45.79 142.7 47.33 143.29 44.93 148.53 46.76 149.37 49.89 142.54 47.26 141.5"/><path class="cls-1" d="M71.59,146.72l-.68-1.64-.91.44-1.75-3.73-1.88.7-1,5,.62,1.7,2.93-1.3.81,1.74,1.83-.84-.81-1.71Zm-4.71.28.58-2.17.72,1.54Z"/><path class="cls-2" d="M58.26,164.64c-18.54,0-29.43-8-35-8S16.08,159,16.08,159s-2-8.84-1.36-10,4.08-2,9.19-2c9.7,0,19.05,7.65,34.36,7.65s24.66-7.65,34.36-7.65c5.1,0,8.5.85,9.19,2s-1.36,10-1.36,10-1.53-2.38-7.14-2.38S76.8,164.64,58.26,164.64Z"/><path class="cls-2" d="M100.44,160.55s-1.53-2.38-7.14-2.38A6.1,6.1,0,0,0,88.71,160s8,4.08,11.74.51Z"/><path class="cls-2" d="M16.08,160.55s1.53-2.38,7.14-2.38A6.1,6.1,0,0,1,27.81,160S19.82,164.13,16.08,160.55Z"/><path class="cls-1" d="M25.44,155.18l-2.07.15-2.29-2.85-.38.43.19,2.59-1.69.12L18.65,148l1.69-.12.22,3,2.9-3.33,1.13,1-2.41,2.74Z"/><path class="cls-1" d="M39,152.88l-5.46,5.58-.69-.26-.38-7.8,1.66-.09.2,5.2,3.53-3.78Z"/><path class="cls-1" d="M49.58,162.94l-1.7-.39L48,158.2l-2.35,3.23-.76-.18-.59-3.75-1.75,3.82-1.6-.37,3.39-7.07L45,154l1,4.87,3-3.95.69.16Z"/><path class="cls-1" d="M55.14,163.44,50.6,163l.74-7.62,4.37.43-.13,1.31-2.69-.26-.2,2,2.79.27-.08.85-2.79-.27-.21,2.12,2.86.28Z"/><path class="cls-1" d="M61.49,161.86a4.57,4.57,0,0,1-1,.14,1.72,1.72,0,0,1-1.52-.66,3.14,3.14,0,0,1-.51-1.84,2.56,2.56,0,0,1,.58-1.8,1.91,1.91,0,0,1,1.46-.69,2,2,0,0,1,.82.11,2.52,2.52,0,0,1,.45.25l.29-1.46a3.38,3.38,0,0,0-.59-.18,5,5,0,0,0-1.07-.12,3.47,3.47,0,0,0-2.76,1.19,4.57,4.57,0,0,0,0,5.63,3.5,3.5,0,0,0,2.74,1,5,5,0,0,0,1.06-.14,3.11,3.11,0,0,0,1-.38l0-1.4A4,4,0,0,1,61.49,161.86Z"/><path class="cls-1" d="M70.06,162.17l-1.67.23-.44-3.17-2.08.29.44,3.17-1.67.23-1.06-7.58,1.67-.23.44,3.15,2.08-.29-.44-3.15,1.67-.23Z"/><path class="cls-1" d="M76.69,160.65l-4.42,1.13-1.89-7.42,4.25-1.09.33,1.28-2.62.67.5,2,2.72-.69.21.82-2.72.69.53,2.06,2.78-.71Z"/><path class="cls-1" d="M82.69,158.68l-4.43,1.53L75.77,153l1.6-.55,2.06,6,2.83-1Z"/><path class="cls-1" d="M87.83,156.39,83.56,158l-2.7-7.16L85,149.28l.47,1.23-2.53,1,.72,1.91,2.63-1,.3.8-2.63,1,.75,2,2.68-1Z"/><path class="cls-1" d="M94.81,155.15l-.73.1L90,151.35l.61,4.39L89,156,88,148.38l.73-.1,4.06,3.88-.61-4.36,1.6-.22Z"/><circle class="cls-1" cx="28.38" cy="155.51" r="1.13"/><circle class="cls-1" cx="38.7" cy="159.48" r="1.13"/><text class="cls-4" transform="translate(0 18.8)"><tspan class="cls-5">P</tspan><tspan class="cls-6" x="11.39" y="0">o</tspan><tspan class="cls-7" x="23.56" y="0">w</tspan><tspan x="39.87" y="0">e</tspan><tspan class="cls-8" x="51.12" y="0">r</tspan><tspan x="58.24" y="0">ed </tspan><tspan class="cls-9" x="86.92" y="0">B</tspan><tspan x="99.19" y="0">y</tspan></text></g></g></svg>